<svg xmlns="http://www.w3.org/2000/svg" width="640" height="640" viewBox="0 0 640 640" version="1.1">
	<path d="M 513.333 0.667 C 513.700 1.033, 514.300 1.033, 514.667 0.667 C 515.033 0.300, 514.733 -0, 514 -0 C 513.267 -0, 512.967 0.300, 513.333 0.667 M 528.333 0.667 C 528.700 1.033, 529.300 1.033, 529.667 0.667 C 530.033 0.300, 529.733 -0, 529 -0 C 528.267 -0, 527.967 0.300, 528.333 0.667 M 531 0.488 C 531 0.848, 531.724 1.866, 532.608 2.751 C 534.085 4.228, 534.187 4.208, 533.858 2.512 C 533.527 0.804, 531 -0.985, 531 0.488 M 537.048 1.557 C 538.069 2.788, 537.999 2.937, 536.641 2.416 C 535.739 2.069, 535 2.254, 535 2.826 C 535 3.397, 535.877 4.144, 536.949 4.484 C 538.168 4.871, 538.682 5.666, 538.320 6.609 C 538.002 7.437, 537.125 7.878, 536.371 7.589 C 535.617 7.300, 535 7.499, 535 8.031 C 535 8.564, 535.675 9, 536.500 9 C 537.325 9, 538 9.675, 538 10.500 C 538 11.500, 537 12, 535 12 C 533.350 12, 532 12.477, 532 13.059 C 532 13.641, 532.384 13.881, 532.853 13.591 C 534.916 12.316, 536.862 15.761, 537.408 21.656 C 537.722 25.042, 538.405 28.936, 538.927 30.308 C 540.153 33.532, 544.477 37.603, 549.391 40.160 L 553.281 42.184 550.718 44.561 C 545.727 49.188, 545.977 55.930, 551.337 61.265 C 554.019 63.935, 555.759 64.662, 561.460 65.495 C 567.830 66.425, 570.897 68.245, 567.805 69.261 C 567.087 69.497, 567.695 69.508, 569.155 69.286 C 572.381 68.796, 573.671 70.472, 571.635 72.508 C 569.945 74.198, 567 74.511, 567 73 C 567 72.450, 566.495 72, 565.878 72 C 565.052 72, 565.050 72.355, 565.869 73.342 C 566.481 74.080, 566.676 74.990, 566.302 75.365 C 565.927 75.740, 566.631 76.753, 567.865 77.618 C 569.100 78.483, 569.973 79.853, 569.805 80.664 C 569.485 82.211, 554.954 88.132, 542 91.992 C 533.334 94.575, 532.353 95.218, 534.437 96.947 C 536.183 98.397, 536.722 98.235, 550.904 92.009 C 558.232 88.792, 560.489 88.170, 561.126 89.190 C 561.751 90.192, 562.314 89.974, 563.519 88.263 C 564.564 86.780, 565.836 86.166, 567.297 86.439 C 568.509 86.666, 570.894 86.885, 572.597 86.926 C 576.756 87.025, 579.965 89.852, 578.926 92.500 C 578.261 94.193, 578.130 94.232, 578.070 92.750 C 578.032 91.787, 577.475 91, 576.833 91 C 576.192 91, 575.964 91.297, 576.327 91.661 C 576.691 92.024, 575.978 92.827, 574.744 93.445 C 573.068 94.285, 572.500 95.444, 572.500 98.026 C 572.500 101.001, 572.013 101.708, 569 103.101 C 567.075 103.992, 563.577 104.966, 561.227 105.268 C 557.727 105.717, 557.004 105.535, 557.227 104.262 C 557.377 103.407, 556.869 102.488, 556.098 102.220 C 555.068 101.861, 554.853 102.330, 555.288 103.993 C 555.625 105.284, 555.223 107.256, 554.351 108.587 C 551.238 113.338, 555.458 121, 561.189 121 C 562.735 121, 564 121.450, 564 122 C 564 122.550, 564.477 123, 565.059 123 C 565.641 123, 565.844 122.557, 565.509 122.015 C 565.174 121.473, 566.273 119.688, 567.950 118.049 C 570.807 115.256, 572.215 112.131, 570 113.500 C 569.450 113.840, 569 113.247, 569 112.181 C 569 111.116, 568.297 109.661, 567.437 108.948 C 565.731 107.532, 566.347 106.901, 570.750 105.554 C 572.513 105.014, 572.997 105.259, 572.985 106.683 C 572.972 108.222, 572.821 108.270, 572 107 C 571.172 105.718, 571.028 105.754, 571.015 107.250 C 571.006 108.308, 571.751 109, 572.900 109 C 573.945 109, 576.339 110.539, 578.220 112.420 C 581.354 115.554, 581.532 116.045, 580.353 118.296 C 579.645 119.647, 578.627 122.706, 578.090 125.093 C 577.261 128.784, 577.426 129.985, 579.192 133.128 C 582.074 138.255, 586.187 140.998, 592.034 141.690 C 596.083 142.170, 596.802 142.534, 595.884 143.640 C 595.203 144.461, 595.152 145, 595.755 145 C 596.305 145, 597.315 144.325, 598 143.500 C 599.369 141.850, 601.481 141.412, 600.513 142.979 C 600.180 143.518, 600.461 144.980, 601.137 146.229 C 601.813 147.478, 602.276 149.738, 602.167 151.250 C 602.058 152.763, 602.480 154, 603.107 154 C 603.926 154, 603.906 154.409, 603.036 155.456 C 602.372 156.257, 602.095 157.344, 602.421 157.872 C 602.747 158.400, 602.590 159.949, 602.071 161.313 C 601.552 162.678, 601.436 164.103, 601.814 164.480 C 602.191 164.858, 602.517 167.778, 602.538 170.970 C 602.567 175.523, 602.276 176.659, 601.186 176.241 C 600.232 175.875, 599.926 176.302, 600.208 177.604 C 600.434 178.647, 601.203 179.371, 601.917 179.214 C 602.630 179.057, 604.573 180.520, 606.234 182.464 C 607.895 184.409, 609.760 185.993, 610.377 185.985 C 610.995 185.976, 610.825 185.487, 610 184.898 C 608.787 184.032, 608.918 183.918, 610.685 184.303 C 611.887 184.565, 613.715 184.187, 614.747 183.464 C 615.972 182.607, 617.124 182.471, 618.062 183.075 C 619.169 183.787, 619.217 184.183, 618.270 184.797 C 617.503 185.293, 617.218 186.989, 617.514 189.297 C 617.935 192.592, 617.740 193.009, 615.744 193.082 C 613.782 193.153, 613.885 193.332, 616.568 194.510 C 618.256 195.251, 620.219 196.559, 620.931 197.417 C 622.007 198.713, 621.953 199.081, 620.613 199.595 C 619.726 199.936, 619.014 201.178, 619.032 202.357 C 619.075 205.270, 621.561 208.389, 623.088 207.446 C 623.868 206.963, 624.051 207.108, 623.595 207.845 C 623.142 208.579, 623.654 209, 625 209 C 626.165 209, 626.840 208.550, 626.500 208 C 626.160 207.450, 626.614 207, 627.508 207 C 628.680 207, 628.957 206.440, 628.500 205 C 628.128 203.828, 628.320 203, 628.964 203 C 630.387 203, 630.040 196.280, 628.447 193 C 627.780 191.625, 626.906 187.575, 626.505 184 C 626.105 180.425, 625.417 177.050, 624.977 176.500 C 624.537 175.950, 624.397 174.358, 624.665 172.962 C 625.027 171.077, 625.841 170.367, 627.826 170.203 C 629.297 170.082, 630.653 169.529, 630.839 168.974 C 631.026 168.418, 631.857 167.286, 632.686 166.456 C 633.516 165.627, 633.920 164.235, 633.586 163.363 C 633.087 162.064, 633.474 161.902, 635.729 162.468 C 637.242 162.848, 638.815 163.685, 639.225 164.329 C 639.634 164.973, 639.976 162.688, 639.985 159.250 C 639.993 155.813, 639.753 153, 639.450 153 C 639.148 153, 637.550 153.698, 635.899 154.552 C 633.627 155.727, 633.048 156.577, 633.517 158.052 C 633.887 159.219, 633.669 160, 632.974 160 C 632.335 160, 631.577 159.100, 631.290 158 C 631.002 156.900, 630.460 156, 630.084 156 C 629.709 156, 629.583 154.447, 629.804 152.550 C 630.082 150.168, 629.565 148.198, 628.133 146.187 C 626.992 144.585, 626.383 142.916, 626.780 142.478 C 627.176 142.040, 626.689 141.973, 625.698 142.329 C 624.620 142.717, 624.142 142.579, 624.509 141.985 C 624.847 141.439, 626.189 141.260, 627.491 141.587 C 629.514 142.095, 629.781 141.878, 629.316 140.102 C 629.017 138.958, 628.442 138.227, 628.038 138.477 C 627.633 138.727, 627.284 137.484, 627.262 135.716 C 627.239 133.947, 627.432 133.058, 627.691 133.741 C 628.039 134.660, 628.580 134.563, 629.774 133.369 C 631.258 131.885, 631.231 131.638, 629.443 130.281 C 627.636 128.909, 627.728 128.853, 630.750 129.482 C 632.731 129.895, 634 129.762, 634 129.141 C 634 128.581, 635.237 128.208, 636.750 128.312 L 639.500 128.500 639.757 64.233 L 640.015 -0.033 587.913 0.018 C 541.897 0.063, 535.956 0.243, 537.048 1.557 M 473.105 6.373 C 471.763 7.990, 472.660 11, 474.485 11 C 475.183 11, 476.315 10.325, 477 9.500 C 477.993 8.303, 477.993 7.697, 477 6.500 C 475.457 4.641, 474.567 4.612, 473.105 6.373 M 531.692 16.763 C 530.395 17.054, 529.971 17.923, 530.192 19.835 C 530.434 21.929, 531.036 22.500, 533 22.500 C 534.773 22.500, 535.587 21.893, 535.798 20.412 C 536.153 17.927, 534.208 16.199, 531.692 16.763 M 476 21 C 476 23.274, 478.508 23.725, 479.324 21.598 C 479.952 19.962, 479.214 19, 477.333 19 C 476.600 19, 476 19.900, 476 21 M 496.364 23.493 C 496.018 24.396, 496.214 25.614, 496.800 26.200 C 498.324 27.724, 501.210 26.331, 500.812 24.265 C 500.369 21.963, 497.165 21.407, 496.364 23.493 M 507.200 23.200 C 503.680 26.720, 508.155 31.314, 512.040 28.168 C 513.934 26.635, 514.092 26.040, 513.098 24.183 C 511.815 21.785, 509.072 21.328, 507.200 23.200 M 536 26.500 C 536 26.775, 536.225 27, 536.500 27 C 536.775 27, 537 26.775, 537 26.500 C 537 26.225, 536.775 26, 536.500 26 C 536.225 26, 536 26.225, 536 26.500 M 506.636 43.494 C 506.952 44.316, 507.612 44.740, 508.105 44.435 C 509.517 43.563, 509.149 42, 507.531 42 C 506.639 42, 506.288 42.587, 506.636 43.494 M 536.469 47.050 C 535.551 48.536, 536.281 49.062, 537.886 48.071 C 538.745 47.539, 538.848 47.024, 538.176 46.609 C 537.605 46.256, 536.837 46.455, 536.469 47.050 M 511.995 48.990 C 512.580 50.085, 513.384 50.872, 513.780 50.740 C 514.176 50.608, 514.606 50.845, 514.735 51.267 C 514.864 51.689, 516.664 53.489, 518.735 55.267 C 520.806 57.045, 522.986 59.119, 523.579 59.877 C 524.430 60.963, 525.117 61.008, 526.829 60.091 C 530.394 58.184, 529.857 57.242, 521.793 51.244 C 515.557 46.607, 510.040 45.337, 511.995 48.990 M 481.667 52.667 C 480.398 53.935, 481.007 57.065, 482.645 57.694 C 484.901 58.560, 487.393 55.179, 485.861 53.332 C 484.670 51.897, 482.742 51.591, 481.667 52.667 M 544.250 63.662 C 543.029 64.155, 542.445 67, 543.566 67 C 545.137 67, 547.981 64.778, 547.469 63.950 C 546.838 62.928, 546.208 62.872, 544.250 63.662 M 497.250 65.662 C 495.243 66.472, 495.812 69, 498 69 C 499.333 69, 500 68.333, 500 67 C 500 64.979, 499.521 64.746, 497.250 65.662 M 529.736 68.250 C 526.978 70.345, 526.052 74.219, 527.492 77.644 C 530.595 85.023, 541 82.247, 541 74.039 C 541 68.750, 533.890 65.096, 529.736 68.250 M 551 68.059 C 551 68.641, 551.450 68.840, 552 68.500 C 552.550 68.160, 553 67.684, 553 67.441 C 553 67.198, 552.550 67, 552 67 C 551.450 67, 551 67.477, 551 68.059 M 559 68 C 559 68.733, 559.300 69.033, 559.667 68.667 C 560.033 68.300, 560.033 67.700, 559.667 67.333 C 559.300 66.967, 559 67.267, 559 68 M 547 69.500 C 547 69.775, 547.225 70, 547.500 70 C 547.775 70, 548 69.775, 548 69.500 C 548 69.225, 547.775 69, 547.500 69 C 547.225 69, 547 69.225, 547 69.500 M 559 70.500 C 559 70.775, 559.225 71, 559.500 71 C 559.775 71, 560 70.775, 560 70.500 C 560 70.225, 559.775 70, 559.500 70 C 559.225 70, 559 70.225, 559 70.500 M 561.702 72.333 C 561.421 73.067, 561.780 73.667, 562.500 73.667 C 563.220 73.667, 563.579 73.067, 563.298 72.333 C 563.016 71.600, 562.657 71, 562.500 71 C 562.343 71, 561.984 71.600, 561.702 72.333 M 523 72.500 C 523 72.775, 523.225 73, 523.500 73 C 523.775 73, 524 72.775, 524 72.500 C 524 72.225, 523.775 72, 523.500 72 C 523.225 72, 523 72.225, 523 72.500 M 545 73.500 C 545 74.530, 545.655 75.020, 546.750 74.810 C 548.858 74.404, 548.725 72.629, 546.553 72.177 C 545.647 71.988, 545 72.539, 545 73.500 M 559 78.441 C 559 79.234, 559.563 80.232, 560.250 80.660 C 561.867 81.667, 566.214 81.131, 567.500 79.767 C 568.190 79.035, 567.983 78.887, 566.833 79.290 C 565.866 79.628, 564.934 79.270, 564.614 78.437 C 563.884 76.534, 559 76.538, 559 78.441 M 513.074 79.954 C 511.496 80.930, 512.505 83, 514.559 83 C 516.079 83, 516.562 80.465, 515.202 79.625 C 514.763 79.354, 513.806 79.502, 513.074 79.954 M 545 84.559 C 545 85.416, 545.450 85.840, 546 85.500 C 546.550 85.160, 547 84.459, 547 83.941 C 547 83.423, 546.550 83, 546 83 C 545.450 83, 545 83.702, 545 84.559 M 566 87.893 C 566 88.384, 566.739 89.069, 567.641 89.416 C 569.014 89.943, 569.076 89.796, 568.019 88.523 C 566.579 86.788, 566 86.607, 566 87.893 M 571 90 C 571 90.550, 571.927 91, 573.059 91 C 574.191 91, 574.840 90.550, 574.500 90 C 574.160 89.450, 573.234 89, 572.441 89 C 571.648 89, 571 89.450, 571 90 M 564.813 93.683 C 565.534 93.972, 566.397 93.936, 566.729 93.604 C 567.061 93.272, 566.471 93.036, 565.417 93.079 C 564.252 93.127, 564.015 93.364, 564.813 93.683 M 568 95.500 C 568 95.775, 568.225 96, 568.500 96 C 568.775 96, 569 95.775, 569 95.500 C 569 95.225, 568.775 95, 568.500 95 C 568.225 95, 568 95.225, 568 95.500 M 556 96.500 C 556 96.775, 556.225 97, 556.500 97 C 556.775 97, 557 96.775, 557 96.500 C 557 96.225, 556.775 96, 556.500 96 C 556.225 96, 556 96.225, 556 96.500 M 517 98 C 517 98.550, 517.702 99, 518.559 99 C 519.416 99, 519.840 98.550, 519.500 98 C 519.160 97.450, 518.459 97, 517.941 97 C 517.423 97, 517 97.450, 517 98 M 563.516 97.975 C 562.727 99.250, 564.365 100.011, 565.882 99.073 C 566.886 98.452, 566.828 98.148, 565.616 97.683 C 564.762 97.355, 563.817 97.487, 563.516 97.975 M 568 98.059 C 568 98.641, 568.450 98.840, 569 98.500 C 569.550 98.160, 570 97.684, 570 97.441 C 570 97.198, 569.550 97, 569 97 C 568.450 97, 568 97.477, 568 98.059 M 25.571 99.571 C 22.687 102.456, 23.768 107.191, 27.582 108.379 C 31.376 109.562, 34.819 103.615, 32.368 100.115 C 30.614 97.611, 27.760 97.383, 25.571 99.571 M 573 114 C 571.718 114.828, 571.754 114.972, 573.250 114.985 C 574.212 114.993, 575 114.550, 575 114 C 575 112.780, 574.887 112.780, 573 114 M 523.534 115.963 C 521.245 118.491, 522.225 121, 525.500 121 C 528.537 121, 529.587 118.966, 528.042 116.078 C 526.658 113.493, 525.789 113.471, 523.534 115.963 M 576 116 C 576 116.733, 576.300 117.033, 576.667 116.667 C 577.033 116.300, 577.033 115.700, 576.667 115.333 C 576.300 114.967, 576 115.267, 576 116 M 578 117.500 C 578 117.775, 578.225 118, 578.500 118 C 578.775 118, 579 117.775, 579 117.500 C 579 117.225, 578.775 117, 578.500 117 C 578.225 117, 578 117.225, 578 117.500 M 551 120 C 551 120.550, 551.450 121, 552 121 C 552.550 121, 553 120.550, 553 120 C 553 119.450, 552.550 119, 552 119 C 551.450 119, 551 119.450, 551 120 M 571.686 121.625 C 571.977 122.381, 572.423 123, 572.678 123 C 572.934 123, 573.762 122.381, 574.518 121.625 C 575.685 120.458, 575.534 120.250, 573.526 120.250 C 571.928 120.250, 571.330 120.697, 571.686 121.625 M 569 121.500 C 569 121.775, 569.225 122, 569.500 122 C 569.775 122, 570 121.775, 570 121.500 C 570 121.225, 569.775 121, 569.500 121 C 569.225 121, 569 121.225, 569 121.500 M 553.500 123 C 553.160 123.550, 553.097 124, 553.359 124 C 553.622 124, 554.548 124.273, 555.418 124.607 C 556.456 125.005, 557 124.662, 557 123.607 C 557 121.843, 554.485 121.407, 553.500 123 M 547.544 123.928 C 547.067 124.701, 547.300 125.576, 548.122 126.096 C 549.145 126.744, 548.920 126.973, 547.250 126.985 C 546.013 126.993, 545 127.450, 545 128 C 545 129.358, 546.291 129.257, 548.207 127.750 C 549.248 126.931, 549.546 125.833, 549.070 124.566 C 548.524 123.110, 548.148 122.952, 547.544 123.928 M 574 125 C 574 125.733, 574.300 126.033, 574.667 125.667 C 575.033 125.300, 575.033 124.700, 574.667 124.333 C 574.300 123.967, 574 124.267, 574 125 M 569 126 C 569 126.550, 569.477 127, 570.059 127 C 570.641 127, 570.840 126.550, 570.500 126 C 570.160 125.450, 569.684 125, 569.441 125 C 569.198 125, 569 125.450, 569 126 M 564.405 128.155 C 563.962 128.870, 564.130 129.038, 564.845 128.595 C 565.998 127.883, 566.393 127, 565.559 127 C 565.316 127, 564.797 127.520, 564.405 128.155 M 570 130.500 C 570 130.775, 570.225 131, 570.500 131 C 570.775 131, 571 130.775, 571 130.500 C 571 130.225, 570.775 130, 570.500 130 C 570.225 130, 570 130.225, 570 130.500 M 639 130.500 C 639 130.775, 639.225 131, 639.500 131 C 639.775 131, 640 130.775, 640 130.500 C 640 130.225, 639.775 130, 639.500 130 C 639.225 130, 639 130.225, 639 130.500 M 567 131.941 C 567 132.459, 567.450 133.160, 568 133.500 C 568.550 133.840, 569 133.416, 569 132.559 C 569 131.702, 568.550 131, 568 131 C 567.450 131, 567 131.423, 567 131.941 M 572 131.500 C 572 131.775, 572.225 132, 572.500 132 C 572.775 132, 573 131.775, 573 131.500 C 573 131.225, 572.775 131, 572.500 131 C 572.225 131, 572 131.225, 572 131.500 M 537.750 132.689 C 535.176 133.362, 535.378 136.474, 538 136.535 C 539.670 136.573, 540.961 135.152, 540.985 133.250 C 541 131.961, 540.722 131.913, 537.750 132.689 M 637.731 133.920 C 637.296 135.583, 637.426 135.974, 638.168 135.232 C 638.750 134.650, 639.028 133.585, 638.788 132.863 C 638.538 132.114, 638.085 132.568, 637.731 133.920 M 544.200 134.200 C 542.585 135.815, 542.689 136.667, 544.500 136.667 C 545.325 136.667, 546 135.842, 546 134.833 C 546 132.675, 545.796 132.604, 544.200 134.200 M 574 135 C 574 135.550, 574.477 136, 575.059 136 C 575.641 136, 575.840 135.550, 575.500 135 C 575.160 134.450, 574.684 134, 574.441 134 C 574.198 134, 574 134.450, 574 135 M 634.345 135.543 C 634.019 136.392, 633.976 137.310, 634.249 137.583 C 634.523 137.856, 634.986 137.161, 635.279 136.040 C 635.903 133.657, 635.210 133.289, 634.345 135.543 M 565 136.417 C 565 137.287, 565.712 138, 566.583 138 C 568.349 138, 568.042 135.847, 566.188 135.229 C 565.534 135.011, 565 135.546, 565 136.417 M 631.638 136.500 C 631.955 137.325, 632.391 138, 632.607 138 C 632.823 138, 633 137.325, 633 136.500 C 633 135.675, 632.564 135, 632.031 135 C 631.499 135, 631.322 135.675, 631.638 136.500 M 539.177 138.050 C 536.617 140.435, 536.480 141, 538.465 141 C 539.879 141, 542.580 137.247, 541.758 136.425 C 541.536 136.203, 540.375 136.934, 539.177 138.050 M 555 138 C 554.207 138.490, 553.890 139.223, 554.296 139.629 C 554.701 140.035, 555.558 139.842, 556.200 139.200 C 557.711 137.689, 556.868 136.846, 555 138 M 576.557 141.223 C 575.701 142.445, 574.993 144.132, 574.985 144.973 C 574.971 146.324, 574.857 146.327, 574 145 C 573.245 143.831, 573.027 144.107, 573.015 146.250 C 573.005 148.035, 573.527 149, 574.500 149 C 575.325 149, 576 148.539, 576 147.975 C 576 147.412, 577.223 146.486, 578.717 145.917 C 583.459 144.115, 584.284 142.971, 582.370 140.857 C 580.153 138.406, 578.455 138.513, 576.557 141.223 M 562.667 140.667 C 561.516 141.817, 561.938 143, 563.500 143 C 564.325 143, 565 142.325, 565 141.500 C 565 139.938, 563.817 139.516, 562.667 140.667 M 631 141 C 631 141.733, 631.300 142.033, 631.667 141.667 C 632.033 141.300, 632.033 140.700, 631.667 140.333 C 631.300 139.967, 631 140.267, 631 141 M 637.031 140.500 C 637.031 141.050, 637.467 142.175, 638 143 C 638.533 143.825, 638.969 144.050, 638.969 143.500 C 638.969 142.950, 638.533 141.825, 638 141 C 637.467 140.175, 637.031 139.950, 637.031 140.500 M 546 142.500 C 546 143.417, 546.484 144.005, 547.075 143.808 C 547.666 143.611, 548.150 143.022, 548.150 142.500 C 548.150 141.978, 547.666 141.389, 547.075 141.192 C 546.484 140.995, 546 141.583, 546 142.500 M 609.366 143.022 C 608.080 144.321, 608.751 148.272, 610.114 147.430 C 610.601 147.128, 611 147.385, 611 148 C 611 148.615, 611.498 148.810, 612.107 148.434 C 612.829 147.988, 612.864 147.533, 612.208 147.125 C 611.654 146.781, 611.044 145.459, 610.851 144.187 C 610.588 142.454, 610.216 142.162, 609.366 143.022 M 58.040 144.452 C 56.468 146.346, 57.037 149.003, 59.313 150.393 C 61.887 151.965, 65.463 147.734, 63.950 144.907 C 62.740 142.646, 59.731 142.414, 58.040 144.452 M 555.543 143.931 C 554.860 145.036, 556.437 146.230, 557.361 145.306 C 558.311 144.355, 558.134 143, 557.059 143 C 556.541 143, 555.859 143.419, 555.543 143.931 M 129 145.441 C 129 146.298, 129.450 147, 130 147 C 130.550 147, 131 146.577, 131 146.059 C 131 145.541, 130.550 144.840, 130 144.500 C 129.450 144.160, 129 144.584, 129 145.441 M 593.079 146.583 C 593.127 147.748, 593.364 147.985, 593.683 147.188 C 593.972 146.466, 593.936 145.603, 593.604 145.271 C 593.272 144.939, 593.036 145.529, 593.079 146.583 M 629.333 145.667 C 629.700 146.033, 630.300 146.033, 630.667 145.667 C 631.033 145.300, 630.733 145, 630 145 C 629.267 145, 628.967 145.300, 629.333 145.667 M 639 145.500 C 639 145.775, 639.225 146, 639.500 146 C 639.775 146, 640 145.775, 640 145.500 C 640 145.225, 639.775 145, 639.500 145 C 639.225 145, 639 145.225, 639 145.500 M 599.638 148.500 C 599.955 149.325, 600.391 150, 600.607 150 C 600.823 150, 601 149.325, 601 148.500 C 601 147.675, 600.564 147, 600.031 147 C 599.499 147, 599.322 147.675, 599.638 148.500 M 605.469 147.765 C 604.902 148.169, 604.502 150.975, 604.580 154 C 604.802 162.593, 604.813 162.632, 606.450 160.441 C 607.834 158.589, 607.877 158.615, 607.388 161 L 606.875 163.500 608.356 161 C 609.171 159.625, 610.281 158.500, 610.823 158.500 C 612.099 158.500, 617 153.217, 617 151.841 C 617 151.261, 616.288 151.059, 615.419 151.393 C 614.549 151.727, 612.945 151.374, 611.854 150.610 C 610.763 149.846, 608.924 149.469, 607.767 149.771 C 606.111 150.204, 605.799 149.967, 606.300 148.661 C 607.013 146.801, 606.937 146.719, 605.469 147.765 M 631.079 148.583 C 631.127 149.748, 631.364 149.985, 631.683 149.188 C 631.972 148.466, 631.936 147.603, 631.604 147.271 C 631.272 146.939, 631.036 147.529, 631.079 148.583 M 635 147.500 C 635 147.775, 635.225 148, 635.500 148 C 635.775 148, 636 147.775, 636 147.500 C 636 147.225, 635.775 147, 635.500 147 C 635.225 147, 635 147.225, 635 147.500 M 638 148 C 638 148.733, 638.300 149.033, 638.667 148.667 C 639.033 148.300, 639.033 147.700, 638.667 147.333 C 638.300 146.967, 638 147.267, 638 148 M 614 149 C 614 149.550, 614.477 150, 615.059 150 C 615.641 150, 615.840 149.550, 615.500 149 C 615.160 148.450, 614.684 148, 614.441 148 C 614.198 148, 614 148.450, 614 149 M 491 151 C 491 152.333, 491.667 153, 493 153 C 494.333 153, 495 152.333, 495 151 C 495 149.667, 494.333 149, 493 149 C 491.667 149, 491 149.667, 491 151 M 589 150.500 C 589 151.325, 589.450 152, 590 152 C 590.550 152, 591 151.325, 591 150.500 C 591 149.675, 590.550 149, 590 149 C 589.450 149, 589 149.675, 589 150.500 M 627 150 C 627 150.550, 627.477 151, 628.059 151 C 628.641 151, 628.840 150.550, 628.500 150 C 628.160 149.450, 627.684 149, 627.441 149 C 627.198 149, 627 149.450, 627 150 M 572.500 151 C 572.160 151.550, 572.610 152, 573.500 152 C 574.390 152, 574.840 151.550, 574.500 151 C 574.160 150.450, 573.710 150, 573.500 150 C 573.290 150, 572.840 150.450, 572.500 151 M 595 151.059 C 595 151.641, 595.450 151.840, 596 151.500 C 596.550 151.160, 597 150.684, 597 150.441 C 597 150.198, 596.550 150, 596 150 C 595.450 150, 595 150.477, 595 151.059 M 598 151 C 598 151.733, 598.300 152.033, 598.667 151.667 C 599.033 151.300, 599.033 150.700, 598.667 150.333 C 598.300 149.967, 598 150.267, 598 151 M 639 151.500 C 639 151.775, 639.225 152, 639.500 152 C 639.775 152, 640 151.775, 640 151.500 C 640 151.225, 639.775 151, 639.500 151 C 639.225 151, 639 151.225, 639 151.500 M 610 152.717 C 610 153.294, 609.100 154.002, 608 154.290 C 606.067 154.795, 605.128 157, 606.845 157 C 608.178 157, 611.394 153.061, 610.661 152.327 C 610.297 151.964, 610 152.139, 610 152.717 M 521 155 C 521 155.550, 521.450 156, 522 156 C 522.550 156, 523 155.550, 523 155 C 523 154.450, 522.550 154, 522 154 C 521.450 154, 521 154.450, 521 155 M 54.637 156.506 C 52.186 158.957, 51.797 161.707, 53.448 164.900 C 55.539 168.943, 55.546 168.835, 51.075 201.141 C 48.916 216.738, 46.779 232.838, 46.325 236.918 C 45.510 244.247, 45.452 244.363, 41.500 246.527 C 31.993 251.734, 31.707 264.694, 40.992 269.496 L 44.073 271.089 43.962 289.294 C 43.868 304.670, 43.562 308.155, 41.998 311.713 C 40.119 315.985, 39.776 316.183, 32 317.472 C 26.012 318.464, 25.492 318.580, 24.482 319.143 C 23.942 319.445, 21.328 320.279, 18.673 320.997 C 11.116 323.041, 4.060 332.836, 4.015 341.344 C 4.004 343.339, 3.403 344.343, 2 344.710 C 0.011 345.230, -0 346.074, -0 492.617 L 0 640 44.608 640 L 89.217 640 88.613 637.593 C 88.280 636.269, 87.749 634.510, 87.432 633.683 C 86.797 632.028, 88.369 631.310, 94.152 630.614 C 96.161 630.373, 98.719 629.686, 99.836 629.088 C 102.816 627.493, 104.748 627.748, 107.036 630.036 C 109.632 632.632, 111.317 631.613, 110.756 627.788 C 110.403 625.387, 110.785 624.599, 112.733 623.712 C 114.494 622.910, 115.630 622.912, 116.924 623.721 C 118.551 624.737, 118.692 624.353, 118.600 619.165 L 118.500 613.500 121.778 613.650 C 125.608 613.826, 128.317 615.730, 127.557 617.712 C 127.225 618.577, 127.455 618.837, 128.163 618.399 C 128.790 618.012, 129.896 618.505, 130.620 619.496 C 131.751 621.042, 132.171 621.103, 133.587 619.928 C 135.026 618.733, 135.531 618.928, 137.550 621.460 C 138.822 623.055, 140.787 624.429, 141.917 624.512 C 144.096 624.673, 148 627.694, 148 629.220 C 148 629.720, 149.251 631.181, 150.779 632.468 C 152.308 633.754, 154.184 635.975, 154.948 637.403 C 155.713 638.831, 157.162 640, 158.169 640 C 160.775 640, 160.537 639.437, 155.500 633.679 C 153.025 630.849, 151 627.713, 151 626.708 C 151 625.704, 150.619 625.118, 150.153 625.406 C 149.285 625.942, 143.680 620.140, 141.959 616.923 C 139.696 612.695, 141.879 608.055, 146.849 606.525 C 148.904 605.893, 149.114 606.065, 148.531 607.901 C 148.139 609.138, 148.304 610, 148.933 610 C 149.520 610, 149.887 609.438, 149.750 608.750 C 149.612 608.063, 149.950 607.592, 150.500 607.704 C 153.047 608.224, 158.623 610.616, 159.740 611.668 C 160.422 612.311, 162.447 613.153, 164.240 613.539 C 166.033 613.925, 168.779 614.895, 170.343 615.694 C 171.907 616.493, 173.438 616.895, 173.747 616.587 C 174.055 616.278, 171.876 614.937, 168.904 613.606 C 165.932 612.274, 162.717 610.244, 161.760 609.093 C 160.803 607.942, 159.129 607, 158.040 607 C 156.150 607, 149.989 603.999, 147.170 601.704 C 146.438 601.109, 146.041 599.563, 146.289 598.270 C 146.623 596.524, 146.321 595.982, 145.119 596.164 C 143.368 596.428, 139 593.998, 139 592.759 C 139 592.342, 140.125 592, 141.500 592 C 142.875 592, 144 591.580, 144 591.067 C 144 590.554, 144.884 589.854, 145.964 589.511 C 147.521 589.017, 147.808 588.288, 147.348 585.992 C 146.843 583.465, 147.116 583.009, 149.490 582.413 C 151.206 581.982, 153.444 582.318, 155.550 583.322 C 158.587 584.771, 158.838 585.222, 158.335 588.320 C 158.032 590.193, 158.278 592.651, 158.883 593.782 C 159.700 595.308, 159.682 595.939, 158.812 596.229 C 156.419 597.027, 158.911 600, 161.972 600 C 164.990 600, 165.003 599.976, 164.456 595.412 C 164.128 592.682, 164.283 591.057, 164.839 591.400 C 165.352 591.718, 165.987 591.158, 166.249 590.155 C 166.833 587.923, 169.766 587.714, 169.611 589.917 C 169.550 590.788, 170.175 591.500, 171 591.500 C 171.831 591.500, 172.435 590.699, 172.353 589.704 C 172.225 588.126, 172.771 587.990, 176.853 588.581 C 179.409 588.951, 186.225 590.831, 192 592.759 C 197.775 594.686, 203.287 596.301, 204.250 596.346 C 205.978 596.428, 206.370 597.548, 206.066 601.543 C 205.961 602.928, 207.249 604.462, 210.059 606.302 C 213.892 608.812, 214.509 608.928, 218.175 607.829 C 222.899 606.414, 226.174 601.171, 224.939 597 C 224.532 595.625, 224.144 594.950, 224.077 595.500 C 224.010 596.050, 223.220 595.011, 222.323 593.190 C 221.313 591.140, 220.423 590.316, 219.985 591.024 C 219.504 591.802, 219.073 591.632, 218.636 590.494 C 218.283 589.573, 218.196 588.492, 218.444 588.091 C 219.768 585.949, 212.536 588.705, 209.088 591.657 C 205.953 594.340, 204.667 594.892, 203.281 594.150 C 202.301 593.626, 201.050 593.096, 200.500 592.971 C 195.717 591.891, 184.897 587.636, 184.309 586.605 C 183.963 585.997, 184.015 585.801, 184.424 586.168 C 186.650 588.163, 197.797 575.606, 202.907 565.348 C 205.331 560.481, 208.006 555.693, 208.851 554.707 C 210.247 553.079, 210.232 552.974, 208.694 553.564 C 207.268 554.111, 206.987 553.524, 206.917 549.857 C 206.871 547.461, 206.721 544.487, 206.584 543.250 C 206.447 542.013, 206.709 541, 207.167 541 C 208.726 541, 208.005 539.385, 205.131 536.440 C 203.554 534.823, 201.942 532.034, 201.550 530.241 C 201.158 528.449, 200.402 527.252, 199.870 527.580 C 199.272 527.950, 199.354 528.721, 200.083 529.600 C 201.073 530.793, 200.701 530.949, 197.759 530.573 C 189.938 529.571, 179.900 525, 185.522 525 C 188.015 525, 199.361 519.459, 201.256 517.316 C 202.757 515.617, 202.840 514.840, 201.829 511.939 C 200.641 508.532, 193.442 497.391, 191.754 496.348 C 191.256 496.040, 191.896 494.659, 193.175 493.278 L 195.500 490.767 192.250 491.463 C 190.161 491.910, 189 491.773, 189 491.079 C 189 489.972, 185.440 486, 184.447 486 C 184.143 486, 182.237 487.126, 180.211 488.503 C 176.837 490.795, 176.470 490.858, 175.834 489.253 C 175.262 487.808, 175.128 487.904, 175.070 489.801 C 175.019 491.468, 174.005 492.518, 171.392 493.610 C 169.407 494.439, 167.720 494.978, 167.642 494.809 C 167.564 494.639, 166.991 493.579, 166.369 492.454 C 165.747 491.329, 165.163 485.339, 165.071 479.142 C 164.979 472.946, 164.472 466.741, 163.945 465.354 C 163.417 463.967, 163.255 462.397, 163.584 461.865 C 163.912 461.333, 163.128 459.852, 161.841 458.574 C 160.553 457.295, 158.375 454.529, 157 452.426 C 151.914 444.646, 140.490 435.121, 131.575 431.227 C 129.905 430.498, 129.047 429.597, 129.575 429.128 C 131.563 427.362, 147.071 421.813, 148.493 422.359 C 149.447 422.725, 150 422.353, 150 421.344 C 150 420.112, 150.671 419.884, 152.956 420.341 C 155.276 420.805, 155.791 420.620, 155.354 419.480 C 155.005 418.570, 155.675 417.685, 157.148 417.111 C 158.442 416.606, 161.037 414.590, 162.915 412.629 C 165.776 409.643, 166.406 408.148, 166.798 403.417 C 168.166 386.925, 158.088 369.047, 143.718 362.473 C 137.306 359.540, 125.160 358.413, 116 359.902 C 112.425 360.483, 108.620 361.080, 107.544 361.229 C 105.816 361.469, 105.578 360.859, 105.498 355.985 C 105.449 352.951, 105.040 349.874, 104.591 349.147 C 104.127 348.396, 104.255 347.345, 104.887 346.713 C 106.440 345.160, 106.274 344, 104.500 344 C 103.675 344, 103 344.450, 103 345 C 103 345.550, 102.550 346, 102 346 C 101.450 346, 101 344.370, 101 342.378 C 101 339.298, 101.221 338.939, 102.475 339.979 C 103.691 340.988, 104.701 340.464, 108.225 336.996 C 110.576 334.682, 113.302 332.221, 114.282 331.528 C 115.262 330.835, 116.260 329.246, 116.500 327.998 C 116.741 326.750, 117.248 325.453, 117.628 325.115 C 118.008 324.777, 118.022 325.325, 117.659 326.334 C 117.203 327.599, 117.386 327.986, 118.249 327.584 C 118.937 327.264, 120.287 326.724, 121.250 326.384 C 122.213 326.045, 123 325.118, 123 324.324 C 123 323.531, 123.401 323.130, 123.891 323.432 C 124.380 323.735, 125.516 322.862, 126.414 321.491 C 127.312 320.121, 127.855 319, 127.622 319 C 127.388 319, 128.407 317.706, 129.885 316.124 C 132.274 313.566, 133.789 308.395, 131.786 309.632 C 130.241 310.587, 131.036 308.338, 132.982 306.250 C 134.815 304.282, 134.833 304.080, 133.232 303.555 C 132.279 303.242, 130.452 300.852, 129.172 298.243 C 126.575 292.953, 122.647 288, 121.048 288 C 120.472 288, 119.983 287.438, 119.962 286.750 C 119.906 284.928, 109.131 277.896, 105.489 277.305 C 103.778 277.027, 98.806 277.716, 94.439 278.835 C 80.680 282.362, 81.124 282.340, 80.414 279.513 C 80.067 278.131, 79.157 277, 78.392 277 C 77.626 277, 77 276.325, 77 275.500 C 77 273.608, 74.618 273.550, 73.079 275.404 C 70.352 278.690, 75.415 285.560, 78.610 282.909 C 79.775 281.942, 80.338 282.080, 81.455 283.602 C 82.763 285.386, 82.450 285.597, 76.257 287.117 C 72.632 288.007, 69.130 289.470, 68.473 290.367 C 67.817 291.265, 66.777 292, 66.163 292 C 65.549 292, 64.248 293.227, 63.273 294.726 C 62.298 296.226, 60.238 298.588, 58.695 299.976 C 57.152 301.364, 55.785 303.224, 55.657 304.109 C 55.529 304.995, 54.654 306.489, 53.712 307.431 C 52.770 308.372, 52 310.111, 52 311.294 L 52 313.445 50.434 311.209 C 49.468 309.831, 48.797 306.490, 48.684 302.496 C 48.583 298.933, 48.163 296.014, 47.750 296.009 C 47.337 296.004, 47 290.606, 47 284.013 L 47 272.025 50.914 269.554 C 56.256 266.182, 58 263.358, 58 258.078 C 58 254.013, 57.551 253.180, 53.117 249.017 L 48.234 244.433 49.103 234.966 C 51.457 209.335, 57.524 168.659, 59.070 168.143 C 61.464 167.345, 64 163.928, 64 161.500 C 64 156.463, 57.922 153.221, 54.637 156.506 M 586.500 158 C 586.840 158.550, 587.316 159, 587.559 159 C 587.802 159, 588 158.550, 588 158 C 588 157.450, 587.523 157, 586.941 157 C 586.359 157, 586.160 157.450, 586.500 158 M 589.336 158.567 C 588.614 160.448, 590.384 162.499, 591.913 161.554 C 593.561 160.535, 593.216 157, 591.469 157 C 590.626 157, 589.667 157.705, 589.336 158.567 M 615 157.500 C 615 157.775, 615.225 158, 615.500 158 C 615.775 158, 616 157.775, 616 157.500 C 616 157.225, 615.775 157, 615.500 157 C 615.225 157, 615 157.225, 615 157.500 M 123.409 161.376 C 122.562 163.584, 123.689 164.711, 125.217 163.183 C 126.119 162.281, 126.122 161.722, 125.233 160.833 C 124.343 159.943, 123.909 160.072, 123.409 161.376 M 547.200 162.200 C 546.540 162.860, 546 164.651, 546 166.181 C 546 168.317, 546.583 169.108, 548.513 169.593 C 551.617 170.372, 554 168.557, 554 165.413 C 554 161.931, 549.564 159.836, 547.200 162.200 M 591.543 162.931 C 590.803 164.128, 592.684 165.313, 594.016 164.490 C 595.135 163.799, 594.400 162, 593 162 C 592.515 162, 591.859 162.419, 591.543 162.931 M 572.639 163.694 C 571.513 164.820, 571.954 166, 573.500 166 C 574.325 166, 575 165.577, 575 165.059 C 575 163.798, 573.438 162.895, 572.639 163.694 M 523.500 165 C 523.840 165.550, 524.316 166, 524.559 166 C 524.802 166, 525 165.550, 525 165 C 525 164.450, 524.523 164, 523.941 164 C 523.359 164, 523.160 164.450, 523.500 165 M 586 166 C 586 166.550, 586.450 167, 587 167 C 587.550 167, 588 166.550, 588 166 C 588 165.450, 587.550 165, 587 165 C 586.450 165, 586 165.450, 586 166 M 624.333 166.667 C 624.700 167.033, 625.300 167.033, 625.667 166.667 C 626.033 166.300, 625.733 166, 625 166 C 624.267 166, 623.967 166.300, 624.333 166.667 M 628 167.500 C 628 167.775, 628.225 168, 628.500 168 C 628.775 168, 629 167.775, 629 167.500 C 629 167.225, 628.775 167, 628.500 167 C 628.225 167, 628 167.225, 628 167.500 M 565.333 168.667 C 565.700 169.033, 566.300 169.033, 566.667 168.667 C 567.033 168.300, 566.733 168, 566 168 C 565.267 168, 564.967 168.300, 565.333 168.667 M 624 168.500 C 624 168.775, 624.225 169, 624.500 169 C 624.775 169, 625 168.775, 625 168.500 C 625 168.225, 624.775 168, 624.500 168 C 624.225 168, 624 168.225, 624 168.500 M 630.667 171.667 C 629.449 172.885, 629.978 175, 631.500 175 C 632.333 175, 633 174.111, 633 173 C 633 171.008, 631.934 170.399, 630.667 171.667 M 114.200 177.200 C 112.400 179, 112.753 181.798, 114.928 182.961 C 117.370 184.268, 119.745 183.380, 120.545 180.860 C 121.730 177.124, 117.003 174.397, 114.200 177.200 M 575 176.500 C 575 176.775, 575.225 177, 575.500 177 C 575.775 177, 576 176.775, 576 176.500 C 576 176.225, 575.775 176, 575.500 176 C 575.225 176, 575 176.225, 575 176.500 M 594.503 179.991 C 593.752 182.358, 594.579 184, 596.524 184 C 598.203 184, 600.346 180.369, 599.487 178.979 C 598.427 177.263, 595.158 177.927, 594.503 179.991 M 565.184 180.584 C 560.367 183.958, 563.599 191.730, 569.341 190.582 C 572.999 189.850, 572.857 189.985, 573.941 186.205 C 574.532 184.144, 574.440 182.662, 573.660 181.689 C 571.835 179.410, 567.641 178.863, 565.184 180.584 M 635.333 180.667 C 635.700 181.033, 636.300 181.033, 636.667 180.667 C 637.033 180.300, 636.733 180, 636 180 C 635.267 180, 634.967 180.300, 635.333 180.667 M 1.309 182.636 C 0.547 184.624, 2.138 187.386, 4.290 187.810 C 6.548 188.255, 8.500 184.307, 6.947 182.436 C 5.341 180.501, 2.084 180.616, 1.309 182.636 M 584 182 C 584 182.550, 584.450 183, 585 183 C 585.550 183, 586 182.550, 586 182 C 586 181.450, 585.550 181, 585 181 C 584.450 181, 584 181.450, 584 182 M 621 181.500 C 621 181.775, 621.225 182, 621.500 182 C 621.775 182, 622 181.775, 622 181.500 C 622 181.225, 621.775 181, 621.500 181 C 621.225 181, 621 181.225, 621 181.500 M 558.500 186 C 558.160 186.550, 558.359 187, 558.941 187 C 559.523 187, 560 186.550, 560 186 C 560 185.450, 559.802 185, 559.559 185 C 559.316 185, 558.840 185.450, 558.500 186 M 615 185.500 C 615 185.775, 615.225 186, 615.500 186 C 615.775 186, 616 185.775, 616 185.500 C 616 185.225, 615.775 185, 615.500 185 C 615.225 185, 615 185.225, 615 185.500 M 598.514 186.977 C 597.559 188.523, 599.947 196.151, 601.153 195.405 C 601.875 194.959, 601.827 194.511, 601.004 194.002 C 600.100 193.444, 600.072 192.733, 600.893 191.200 C 602.577 188.053, 600.323 184.051, 598.514 186.977 M 611.065 188.579 C 612.386 190.170, 614 190.465, 614 189.117 C 614 188.631, 613.074 187.991, 611.943 187.695 C 610.255 187.254, 610.097 187.412, 611.065 188.579 M 599.500 189 C 599.160 189.550, 599.359 190, 599.941 190 C 600.523 190, 601 189.550, 601 189 C 601 188.450, 600.802 188, 600.559 188 C 600.316 188, 599.840 188.450, 599.500 189 M 604 189 C 604 189.733, 604.300 190.033, 604.667 189.667 C 605.033 189.300, 605.033 188.700, 604.667 188.333 C 604.300 187.967, 604 188.267, 604 189 M 607.564 189.707 C 607.022 191.132, 607.136 191.247, 608.124 190.267 C 608.808 189.588, 609.115 188.781, 608.807 188.474 C 608.499 188.166, 607.940 188.721, 607.564 189.707 M 595 189.500 C 595 189.775, 595.225 190, 595.500 190 C 595.775 190, 596 189.775, 596 189.500 C 596 189.225, 595.775 189, 595.500 189 C 595.225 189, 595 189.225, 595 189.500 M 595.500 192 C 595.160 192.550, 595.359 193, 595.941 193 C 596.523 193, 597 192.550, 597 192 C 597 191.450, 596.802 191, 596.559 191 C 596.316 191, 595.840 191.450, 595.500 192 M 638 192.500 C 638 193.325, 638.436 194, 638.969 194 C 639.501 194, 639.678 193.325, 639.362 192.500 C 639.045 191.675, 638.609 191, 638.393 191 C 638.177 191, 638 191.675, 638 192.500 M 81.500 193 C 81.160 193.550, 81.584 194, 82.441 194 C 83.298 194, 84 193.550, 84 193 C 84 192.450, 83.577 192, 83.059 192 C 82.541 192, 81.840 192.450, 81.500 193 M 606 194 C 606 194.733, 606.300 195.033, 606.667 194.667 C 607.033 194.300, 607.033 193.700, 606.667 193.333 C 606.300 192.967, 606 193.267, 606 194 M 111.382 195.500 C 110.522 197.169, 109.199 201.260, 107.443 207.672 C 107.267 208.317, 106.307 208.649, 105.311 208.409 C 102.033 207.621, 100.983 209.515, 98.015 221.574 C 96.401 228.133, 92.587 240.317, 89.540 248.648 C 83.706 264.600, 83.065 267.979, 85.487 269.989 C 88.071 272.134, 89.626 270.397, 91.890 262.841 C 96.561 247.247, 104.362 224.268, 106.664 219.326 C 107.989 216.481, 108.978 212.656, 108.862 210.826 C 108.646 207.419, 110.511 200.447, 112.213 198.298 C 112.737 197.637, 112.996 196.287, 112.789 195.298 C 112.442 193.641, 112.332 193.657, 111.382 195.500 M 587.800 195.200 C 588.733 196.133, 589.267 196.133, 590.200 195.200 C 591.133 194.267, 590.867 194, 589 194 C 587.133 194, 586.867 194.267, 587.800 195.200 M 528.469 196.050 C 527.519 197.588, 528.820 198.580, 530.104 197.296 C 530.822 196.578, 530.839 196.019, 530.156 195.597 C 529.596 195.251, 528.837 195.455, 528.469 196.050 M 596.500 197 C 599.249 198.181, 600.828 198.181, 599 197 C 598.175 196.467, 596.825 196.055, 596 196.086 C 595.011 196.122, 595.181 196.433, 596.500 197 M 592 197.500 C 592 197.775, 592.225 198, 592.500 198 C 592.775 198, 593 197.775, 593 197.500 C 593 197.225, 592.775 197, 592.500 197 C 592.225 197, 592 197.225, 592 197.500 M 606 198 C 606 198.733, 606.300 199.033, 606.667 198.667 C 607.033 198.300, 607.033 197.700, 606.667 197.333 C 606.300 196.967, 606 197.267, 606 198 M 585.500 199 C 585.840 199.550, 586.316 200, 586.559 200 C 586.802 200, 587 199.550, 587 199 C 587 198.450, 586.523 198, 585.941 198 C 585.359 198, 585.160 198.450, 585.500 199 M 595 199 C 595 199.733, 595.300 200.033, 595.667 199.667 C 596.033 199.300, 596.033 198.700, 595.667 198.333 C 595.300 197.967, 595 198.267, 595 199 M 636.333 199.667 C 636.700 200.033, 637.300 200.033, 637.667 199.667 C 638.033 199.300, 637.733 199, 637 199 C 636.267 199, 635.967 199.300, 636.333 199.667 M 589.639 202.694 C 588.513 203.820, 588.954 205, 590.500 205 C 591.325 205, 592 204.577, 592 204.059 C 592 202.798, 590.438 201.895, 589.639 202.694 M 598 204.441 C 598 205.298, 598.450 206, 599 206 C 599.550 206, 600 205.577, 600 205.059 C 600 204.541, 599.550 203.840, 599 203.500 C 598.450 203.160, 598 203.584, 598 204.441 M 624 204.500 C 624 204.775, 624.225 205, 624.500 205 C 624.775 205, 625 204.775, 625 204.500 C 625 204.225, 624.775 204, 624.500 204 C 624.225 204, 624 204.225, 624 204.500 M 568.050 208.440 C 565.048 212.056, 568.999 218.743, 572.750 216.394 C 576.400 214.108, 575.076 207, 571 207 C 570.035 207, 568.707 207.648, 568.050 208.440 M 81.583 211.866 C 81.152 212.563, 81.070 213.403, 81.400 213.733 C 82.295 214.628, 83.271 213.312, 82.787 211.862 C 82.449 210.846, 82.213 210.846, 81.583 211.866 M 613 211.500 C 613 211.775, 613.225 212, 613.500 212 C 613.775 212, 614 211.775, 614 211.500 C 614 211.225, 613.775 211, 613.500 211 C 613.225 211, 613 211.225, 613 211.500 M 582 213 C 582 213.550, 582.450 214, 583 214 C 583.550 214, 584 213.550, 584 213 C 584 212.450, 583.550 212, 583 212 C 582.450 212, 582 212.450, 582 213 M 93 214.500 C 93 215.325, 93.450 216, 94 216 C 94.550 216, 95 215.325, 95 214.500 C 95 213.675, 94.550 213, 94 213 C 93.450 213, 93 213.675, 93 214.500 M 606 215.378 C 606 215.585, 606.675 216.315, 607.500 217 C 608.729 218.020, 609 217.951, 609 216.622 C 609 215.730, 608.325 215, 607.500 215 C 606.675 215, 606 215.170, 606 215.378 M 613 215.500 C 613 215.775, 613.225 216, 613.500 216 C 613.775 216, 614 215.775, 614 215.500 C 614 215.225, 613.775 215, 613.500 215 C 613.225 215, 613 215.225, 613 215.500 M 602.079 217.583 C 602.127 218.748, 602.364 218.985, 602.683 218.188 C 602.972 217.466, 602.936 216.603, 602.604 216.271 C 602.272 215.939, 602.036 216.529, 602.079 217.583 M 589.200 219.200 C 587.567 220.833, 587.692 222, 589.500 222 C 590.333 222, 591 221.111, 591 220 C 591 217.669, 590.814 217.586, 589.200 219.200 M 605 218.500 C 605 218.775, 605.225 219, 605.500 219 C 605.775 219, 606 218.775, 606 218.500 C 606 218.225, 605.775 218, 605.500 218 C 605.225 218, 605 218.225, 605 218.500 M 20.639 219.694 C 19.444 220.889, 19.994 223, 21.500 223 C 22.325 223, 23 222.352, 23 221.559 C 23 219.888, 21.573 218.761, 20.639 219.694 M 579 222.500 C 579 222.775, 579.225 223, 579.500 223 C 579.775 223, 580 222.775, 580 222.500 C 580 222.225, 579.775 222, 579.500 222 C 579.225 222, 579 222.225, 579 222.500 M 602 223.427 C 602 224.354, 602.855 225, 604.083 225 C 606.520 225, 606.176 222.663, 603.667 222.177 C 602.680 221.985, 602 222.495, 602 223.427 M 8.213 225.188 C 6.645 226.755, 6.672 228.483, 8.284 229.820 C 10.132 231.354, 12.232 229.667, 11.837 226.965 C 11.439 224.242, 9.909 223.491, 8.213 225.188 M 610.500 225 C 610.160 225.550, 610.584 226, 611.441 226 C 612.298 226, 613 225.550, 613 225 C 613 224.450, 612.577 224, 612.059 224 C 611.541 224, 610.840 224.450, 610.500 225 M 29 227 C 29 227.550, 29.675 228, 30.500 228 C 31.325 228, 32 227.550, 32 227 C 32 226.450, 31.325 226, 30.500 226 C 29.675 226, 29 226.450, 29 227 M 539.655 227.829 C 536.041 231.822, 538.592 238.030, 543.821 237.968 C 549.272 237.903, 552.378 232.752, 549.560 228.451 C 547.571 225.415, 542.148 225.074, 539.655 227.829 M 587.250 226.662 C 585.381 227.416, 585.625 234, 587.521 234 C 589.387 234, 591.484 229.704, 590.663 227.564 C 590.046 225.955, 589.415 225.789, 587.250 226.662 M 74 230 C 74 230.550, 74.450 231, 75 231 C 75.550 231, 76 230.550, 76 230 C 76 229.450, 75.550 229, 75 229 C 74.450 229, 74 229.450, 74 230 M 597 230.500 C 597 230.775, 597.225 231, 597.500 231 C 597.775 231, 598 230.775, 598 230.500 C 598 230.225, 597.775 230, 597.500 230 C 597.225 230, 597 230.225, 597 230.500 M 41.104 231.925 C 40.264 232.451, 39.979 233.502, 40.387 234.566 C 40.865 235.813, 41.379 236.021, 42.127 235.273 C 43.704 233.696, 42.833 230.845, 41.104 231.925 M 616 232.500 C 616 232.775, 616.225 233, 616.500 233 C 616.775 233, 617 232.775, 617 232.500 C 617 232.225, 616.775 232, 616.500 232 C 616.225 232, 616 232.225, 616 232.500 M 31.500 234 C 31.101 234.646, 31.224 235.624, 31.774 236.174 C 32.441 236.841, 33.016 236.783, 33.500 236 C 33.899 235.354, 33.776 234.376, 33.226 233.826 C 32.559 233.159, 31.984 233.217, 31.500 234 M 602 234.500 C 602 234.775, 602.225 235, 602.500 235 C 602.775 235, 603 234.775, 603 234.500 C 603 234.225, 602.775 234, 602.500 234 C 602.225 234, 602 234.225, 602 234.500 M 116 237.500 C 116 237.775, 116.225 238, 116.500 238 C 116.775 238, 117 237.775, 117 237.500 C 117 237.225, 116.775 237, 116.500 237 C 116.225 237, 116 237.225, 116 237.500 M 20.543 240.931 C 20.226 241.443, 20.425 242.144, 20.984 242.490 C 22.177 243.227, 24 242.291, 24 240.941 C 24 239.724, 21.293 239.716, 20.543 240.931 M 198.997 241.503 C 195.995 245.120, 198.946 252, 203.500 252 C 208.054 252, 211.005 245.120, 208.003 241.503 C 207.316 240.676, 205.290 240, 203.500 240 C 201.710 240, 199.684 240.676, 198.997 241.503 M 582.123 247.348 C 579.543 255.333, 579.548 255, 582 255 C 583.370 255, 584.040 254.291, 584.128 252.750 C 584.359 248.667, 584.711 246.195, 585.267 244.747 C 585.568 243.962, 585.462 242.747, 585.030 242.049 C 584.530 241.240, 583.474 243.166, 582.123 247.348 M 605 244 C 605 244.733, 605.300 245.033, 605.667 244.667 C 606.033 244.300, 606.033 243.700, 605.667 243.333 C 605.300 242.967, 605 243.267, 605 244 M 17.015 248.250 C 17.048 250.950, 18.771 252.274, 21.393 251.616 C 22.827 251.256, 24 250.520, 24 249.981 C 24 248.642, 22.652 248.748, 21.200 250.200 C 20.267 251.133, 20 250.911, 20 249.200 C 20 247.911, 19.379 247, 18.500 247 C 17.675 247, 17.007 247.563, 17.015 248.250 M 21 247.500 C 21 247.775, 21.225 248, 21.500 248 C 21.775 248, 22 247.775, 22 247.500 C 22 247.225, 21.775 247, 21.500 247 C 21.225 247, 21 247.225, 21 247.500 M 81 251 C 81 251.550, 81.450 252, 82 252 C 82.550 252, 83 251.550, 83 251 C 83 250.450, 82.550 250, 82 250 C 81.450 250, 81 250.450, 81 251 M 27 254 C 27 254.550, 27.450 255, 28 255 C 28.550 255, 29 254.550, 29 254 C 29 253.450, 28.550 253, 28 253 C 27.450 253, 27 253.450, 27 254 M 16.667 255.667 C 15.202 257.132, 16.045 260, 17.941 260 C 20.297 260, 21.215 258.725, 20.396 256.590 C 19.770 254.957, 17.851 254.482, 16.667 255.667 M 184.989 258.857 C 180.222 263.624, 181.270 265.463, 187.050 262.474 C 188.759 261.590, 190 260.143, 190 259.033 C 190 255.794, 188.118 255.728, 184.989 258.857 M 69.500 265 C 69.840 265.550, 70.316 266, 70.559 266 C 70.802 266, 71 265.550, 71 265 C 71 264.450, 70.523 264, 69.941 264 C 69.359 264, 69.160 264.450, 69.500 265 M 74 265 C 74 265.550, 74.675 266, 75.500 266 C 76.325 266, 77 265.550, 77 265 C 77 264.450, 76.325 264, 75.500 264 C 74.675 264, 74 264.450, 74 265 M 144.557 266.223 C 143.701 267.445, 143 268.959, 143 269.588 C 143 271.661, 147.109 276, 149.073 276 C 151.755 276, 155 272.481, 155 269.571 C 155 264.216, 147.620 261.849, 144.557 266.223 M 19 267 C 19 267.733, 19.300 268.033, 19.667 267.667 C 20.033 267.300, 20.033 266.700, 19.667 266.333 C 19.300 265.967, 19 266.267, 19 267 M 102 268 C 102 268.550, 102.450 269, 103 269 C 103.550 269, 104 268.550, 104 268 C 104 267.450, 103.550 267, 103 267 C 102.450 267, 102 267.450, 102 268 M 5 270.500 C 5 271.325, 5.675 272, 6.500 272 C 7.325 272, 8 271.325, 8 270.500 C 8 269.675, 7.325 269, 6.500 269 C 5.675 269, 5 269.675, 5 270.500 M 83.333 271.667 C 83.700 272.033, 84.300 272.033, 84.667 271.667 C 85.033 271.300, 84.733 271, 84 271 C 83.267 271, 82.967 271.300, 83.333 271.667 M 611 274.559 C 611 275.416, 611.450 275.840, 612 275.500 C 612.550 275.160, 613 274.459, 613 273.941 C 613 273.423, 612.550 273, 612 273 C 611.450 273, 611 273.702, 611 274.559 M 52.543 275.931 C 52.226 276.443, 52.425 277.144, 52.984 277.490 C 53.543 277.835, 54 277.416, 54 276.559 C 54 274.802, 53.400 274.544, 52.543 275.931 M 57.610 281.427 C 58.320 283.276, 61.363 283.589, 60.750 281.750 C 60.522 281.063, 59.586 280.355, 58.671 280.177 C 57.511 279.952, 57.190 280.331, 57.610 281.427 M 32 283 C 32 283.733, 32.300 284.033, 32.667 283.667 C 33.033 283.300, 33.033 282.700, 32.667 282.333 C 32.300 281.967, 32 282.267, 32 283 M 125 283 C 125 283.550, 125.450 284, 126 284 C 126.550 284, 127 283.550, 127 283 C 127 282.450, 126.550 282, 126 282 C 125.450 282, 125 282.450, 125 283 M 86 283.500 C 86 283.775, 86.225 284, 86.500 284 C 86.775 284, 87 283.775, 87 283.500 C 87 283.225, 86.775 283, 86.500 283 C 86.225 283, 86 283.225, 86 283.500 M 63.500 287 C 63.840 287.550, 64.343 288, 64.618 288 C 64.893 288, 64.840 287.550, 64.500 287 C 64.160 286.450, 63.657 286, 63.382 286 C 63.107 286, 63.160 286.450, 63.500 287 M 88 287.500 C 88 287.775, 88.225 288, 88.500 288 C 88.775 288, 89 287.775, 89 287.500 C 89 287.225, 88.775 287, 88.500 287 C 88.225 287, 88 287.225, 88 287.500 M 78 288.500 C 78 288.775, 78.225 289, 78.500 289 C 78.775 289, 79 288.775, 79 288.500 C 79 288.225, 78.775 288, 78.500 288 C 78.225 288, 78 288.225, 78 288.500 M 149.720 290.253 C 148.652 291.590, 148.366 292.622, 149.004 292.835 C 150.434 293.311, 153 291.091, 153 289.378 C 153 287.376, 151.754 287.708, 149.720 290.253 M 98 289.500 C 98 289.775, 98.225 290, 98.500 290 C 98.775 290, 99 289.775, 99 289.500 C 99 289.225, 98.775 289, 98.500 289 C 98.225 289, 98 289.225, 98 289.500 M 77 290.500 C 77 290.775, 77.225 291, 77.500 291 C 77.775 291, 78 290.775, 78 290.500 C 78 290.225, 77.775 290, 77.500 290 C 77.225 290, 77 290.225, 77 290.500 M 3 292 C 3 292.733, 3.300 293.033, 3.667 292.667 C 4.033 292.300, 4.033 291.700, 3.667 291.333 C 3.300 290.967, 3 291.267, 3 292 M 71 292.441 C 71 293.234, 71.423 294.143, 71.939 294.463 C 72.456 294.782, 72.810 294.134, 72.727 293.022 C 72.555 290.738, 71 290.215, 71 292.441 M 1 297 C -0.213 297.784, -0.069 297.972, 1.750 297.985 C 2.988 297.993, 4 297.550, 4 297 C 4 295.747, 2.939 295.747, 1 297 M 143.405 297.155 C 142.962 297.870, 143.130 298.038, 143.845 297.595 C 144.480 297.203, 145 296.684, 145 296.441 C 145 295.607, 144.117 296.002, 143.405 297.155 M 8.500 299 C 8.160 299.550, 8.809 300, 9.941 300 C 11.073 300, 12 299.550, 12 299 C 12 298.450, 11.352 298, 10.559 298 C 9.766 298, 8.840 298.450, 8.500 299 M 31 301 C 31 301.550, 31.423 302, 31.941 302 C 32.459 302, 33.160 301.550, 33.500 301 C 33.840 300.450, 33.416 300, 32.559 300 C 31.702 300, 31 300.450, 31 301 M 129 303 C 129 303.733, 129.300 304.033, 129.667 303.667 C 130.033 303.300, 130.033 302.700, 129.667 302.333 C 129.300 301.967, 129 302.267, 129 303 M 8.345 304.543 C 8.019 305.392, 8.014 306.347, 8.333 306.667 C 9.342 307.676, 12 306.128, 12 304.531 C 12 302.535, 9.112 302.545, 8.345 304.543 M 71 303.500 C 71 303.775, 71.225 304, 71.500 304 C 71.775 304, 72 303.775, 72 303.500 C 72 303.225, 71.775 303, 71.500 303 C 71.225 303, 71 303.225, 71 303.500 M 121 305.500 C 121 305.775, 121.225 306, 121.500 306 C 121.775 306, 122 305.775, 122 305.500 C 122 305.225, 121.775 305, 121.500 305 C 121.225 305, 121 305.225, 121 305.500 M 124.500 306 C 124.840 306.550, 125.343 307, 125.618 307 C 125.893 307, 125.840 306.550, 125.500 306 C 125.160 305.450, 124.657 305, 124.382 305 C 124.107 305, 124.160 305.450, 124.500 306 M 127 305.500 C 127 305.775, 127.225 306, 127.500 306 C 127.775 306, 128 305.775, 128 305.500 C 128 305.225, 127.775 305, 127.500 305 C 127.225 305, 127 305.225, 127 305.500 M 40 307.500 C 40 307.775, 40.225 308, 40.500 308 C 40.775 308, 41 307.775, 41 307.500 C 41 307.225, 40.775 307, 40.500 307 C 40.225 307, 40 307.225, 40 307.500 M 123.405 309.155 C 122.962 309.870, 123.130 310.038, 123.845 309.595 C 124.998 308.883, 125.393 308, 124.559 308 C 124.316 308, 123.797 308.520, 123.405 309.155 M 54 311.167 C 54 312.175, 54.398 313, 54.883 313 C 55.369 313, 55.982 312.175, 56.246 311.167 C 56.538 310.051, 56.192 309.333, 55.363 309.333 C 54.613 309.333, 54 310.158, 54 311.167 M 144.638 310.500 C 144.322 311.325, 144.499 312, 145.031 312 C 145.564 312, 146 311.325, 146 310.500 C 146 309.675, 145.823 309, 145.607 309 C 145.391 309, 144.955 309.675, 144.638 310.500 M 12 311.059 C 12 311.641, 12.450 311.840, 13 311.500 C 13.550 311.160, 14 310.684, 14 310.441 C 14 310.198, 13.550 310, 13 310 C 12.450 310, 12 310.477, 12 311.059 M 39 311.500 C 39 312.325, 39.450 313, 40 313 C 40.550 313, 41 312.325, 41 311.500 C 41 310.675, 40.550 310, 40 310 C 39.450 310, 39 310.675, 39 311.500 M 128.333 310.667 C 128.700 311.033, 129.300 311.033, 129.667 310.667 C 130.033 310.300, 129.733 310, 129 310 C 128.267 310, 127.967 310.300, 128.333 310.667 M 135.638 312.500 C 136.282 314.178, 137.596 314.462, 138.435 313.105 C 138.740 312.612, 138.279 311.937, 137.412 311.605 C 135.160 310.741, 134.995 310.824, 135.638 312.500 M 16 314 C 16 314.733, 16.300 315.033, 16.667 314.667 C 17.033 314.300, 17.033 313.700, 16.667 313.333 C 16.300 312.967, 16 313.267, 16 314 M 26.333 313.667 C 26.700 314.033, 27.300 314.033, 27.667 313.667 C 28.033 313.300, 27.733 313, 27 313 C 26.267 313, 25.967 313.300, 26.333 313.667 M 33 314.500 C 33 314.775, 33.225 315, 33.500 315 C 33.775 315, 34 314.775, 34 314.500 C 34 314.225, 33.775 314, 33.500 314 C 33.225 314, 33 314.225, 33 314.500 M 12.583 315.866 C 12.152 316.563, 12.070 317.403, 12.400 317.733 C 13.295 318.628, 14.271 317.312, 13.787 315.862 C 13.449 314.846, 13.213 314.846, 12.583 315.866 M 35.333 315.667 C 35.700 316.033, 36.300 316.033, 36.667 315.667 C 37.033 315.300, 36.733 315, 36 315 C 35.267 315, 34.967 315.300, 35.333 315.667 M 116 315.500 C 116 315.775, 116.225 316, 116.500 316 C 116.775 316, 117 315.775, 117 315.500 C 117 315.225, 116.775 315, 116.500 315 C 116.225 315, 116 315.225, 116 315.500 M 122 315.500 C 122 315.775, 122.225 316, 122.500 316 C 122.775 316, 123 315.775, 123 315.500 C 123 315.225, 122.775 315, 122.500 315 C 122.225 315, 122 315.225, 122 315.500 M 127 315.500 C 127 315.775, 127.225 316, 127.500 316 C 127.775 316, 128 315.775, 128 315.500 C 128 315.225, 127.775 315, 127.500 315 C 127.225 315, 127 315.225, 127 315.500 M 7 317 C 7 317.733, 7.300 318.033, 7.667 317.667 C 8.033 317.300, 8.033 316.700, 7.667 316.333 C 7.300 315.967, 7 316.267, 7 317 M 120 317.500 C 120 317.775, 120.225 318, 120.500 318 C 120.775 318, 121 317.775, 121 317.500 C 121 317.225, 120.775 317, 120.500 317 C 120.225 317, 120 317.225, 120 317.500 M 123 317.500 C 123 317.775, 123.225 318, 123.500 318 C 123.775 318, 124 317.775, 124 317.500 C 124 317.225, 123.775 317, 123.500 317 C 123.225 317, 123 317.225, 123 317.500 M 118.500 319 C 118.840 319.550, 119.343 320, 119.618 320 C 119.893 320, 119.840 319.550, 119.500 319 C 119.160 318.450, 118.657 318, 118.382 318 C 118.107 318, 118.160 318.450, 118.500 319 M 82 320.500 C 82 320.775, 82.225 321, 82.500 321 C 82.775 321, 83 320.775, 83 320.500 C 83 320.225, 82.775 320, 82.500 320 C 82.225 320, 82 320.225, 82 320.500 M 108.507 320.989 C 108.157 321.555, 108.558 321.723, 109.448 321.382 C 111.180 320.717, 111.497 320, 110.059 320 C 109.541 320, 108.843 320.445, 108.507 320.989 M 124 320.500 C 124 320.775, 124.225 321, 124.500 321 C 124.775 321, 125 320.775, 125 320.500 C 125 320.225, 124.775 320, 124.500 320 C 124.225 320, 124 320.225, 124 320.500 M 105 321.500 C 105 321.775, 105.225 322, 105.500 322 C 105.775 322, 106 321.775, 106 321.500 C 106 321.225, 105.775 321, 105.500 321 C 105.225 321, 105 321.225, 105 321.500 M 134.333 322.667 C 134.700 323.033, 135.300 323.033, 135.667 322.667 C 136.033 322.300, 135.733 322, 135 322 C 134.267 322, 133.967 322.300, 134.333 322.667 M 5 324 C 5 324.733, 5.300 325.033, 5.667 324.667 C 6.033 324.300, 6.033 323.700, 5.667 323.333 C 5.300 322.967, 5 323.267, 5 324 M 105 324.500 C 105 324.775, 105.225 325, 105.500 325 C 105.775 325, 106 324.775, 106 324.500 C 106 324.225, 105.775 324, 105.500 324 C 105.225 324, 105 324.225, 105 324.500 M 169.229 325.188 C 169.847 327.042, 172 327.349, 172 325.583 C 172 324.712, 171.287 324, 170.417 324 C 169.546 324, 169.011 324.534, 169.229 325.188 M 75 325.500 C 75 325.775, 75.225 326, 75.500 326 C 75.775 326, 76 325.775, 76 325.500 C 76 325.225, 75.775 325, 75.500 325 C 75.225 325, 75 325.225, 75 325.500 M 120 330 C 120 330.550, 120.450 331, 121 331 C 121.550 331, 122 330.550, 122 330 C 122 329.450, 121.550 329, 121 329 C 120.450 329, 120 329.450, 120 330 M 95 330.500 C 95 330.775, 95.225 331, 95.500 331 C 95.775 331, 96 330.775, 96 330.500 C 96 330.225, 95.775 330, 95.500 330 C 95.225 330, 95 330.225, 95 330.500 M 81 332.500 C 81 332.775, 81.225 333, 81.500 333 C 81.775 333, 82 332.775, 82 332.500 C 82 332.225, 81.775 332, 81.500 332 C 81.225 332, 81 332.225, 81 332.500 M 121.500 336 C 121.840 336.550, 122.316 337, 122.559 337 C 122.802 337, 123 336.550, 123 336 C 123 335.450, 122.523 335, 121.941 335 C 121.359 335, 121.160 335.450, 121.500 336 M 143 337.500 C 143 337.775, 143.225 338, 143.500 338 C 143.775 338, 144 337.775, 144 337.500 C 144 337.225, 143.775 337, 143.500 337 C 143.225 337, 143 337.225, 143 337.500 M 99 342.500 C 99 342.775, 99.225 343, 99.500 343 C 99.775 343, 100 342.775, 100 342.500 C 100 342.225, 99.775 342, 99.500 342 C 99.225 342, 99 342.225, 99 342.500 M 176.735 345.305 C 166.499 348.554, 162.027 360.251, 167.469 369.537 C 170.210 374.214, 176.750 378, 182.088 378 C 186.779 378, 191.897 375.124, 195.116 370.681 C 197.447 367.463, 198 365.665, 198 361.300 C 198 358.331, 197.325 354.596, 196.501 353.002 C 193.055 346.338, 184.263 342.914, 176.735 345.305 M 123 346.500 C 123 347.325, 123.450 348, 124 348 C 124.550 348, 125 347.325, 125 346.500 C 125 345.675, 124.550 345, 124 345 C 123.450 345, 123 345.675, 123 346.500 M 137.333 348.667 C 137.700 349.033, 138.300 349.033, 138.667 348.667 C 139.033 348.300, 138.733 348, 138 348 C 137.267 348, 136.967 348.300, 137.333 348.667 M 188 409 C 188 409.733, 188.300 410.033, 188.667 409.667 C 189.033 409.300, 189.033 408.700, 188.667 408.333 C 188.300 407.967, 188 408.267, 188 409 M 273.250 410.708 C 272.563 410.960, 272 412.287, 272 413.657 C 272 415.484, 272.463 416.057, 273.739 415.812 C 275.632 415.447, 276.701 412.255, 275.344 411.019 C 274.880 410.596, 273.938 410.456, 273.250 410.708 M 169 415 C 169 415.550, 169.702 416, 170.559 416 C 171.416 416, 171.840 415.550, 171.500 415 C 171.160 414.450, 170.459 414, 169.941 414 C 169.423 414, 169 414.450, 169 415 M 152 425 C 152 425.550, 152.450 426, 153 426 C 153.550 426, 154 425.550, 154 425 C 154 424.450, 153.550 424, 153 424 C 152.450 424, 152 424.450, 152 425 M 159 427.500 C 159 427.775, 159.225 428, 159.500 428 C 159.775 428, 160 427.775, 160 427.500 C 160 427.225, 159.775 427, 159.500 427 C 159.225 427, 159 427.225, 159 427.500 M 250.543 429.931 C 249.860 431.036, 251.437 432.230, 252.361 431.306 C 253.311 430.355, 253.134 429, 252.059 429 C 251.541 429, 250.859 429.419, 250.543 429.931 M 148.250 432.718 C 147.563 432.965, 147 434.431, 147 435.976 C 147 438.808, 148.443 440.074, 150.750 439.269 C 151.438 439.030, 152 437.801, 152 436.539 C 152 433.951, 150.127 432.043, 148.250 432.718 M 177 437.500 C 177 438.417, 177.484 439.005, 178.075 438.808 C 178.666 438.611, 179.150 438.022, 179.150 437.500 C 179.150 436.978, 178.666 436.389, 178.075 436.192 C 177.484 435.995, 177 436.583, 177 437.500 M 191 440.441 C 191 441.298, 191.450 442, 192 442 C 192.550 442, 193 441.577, 193 441.059 C 193 440.541, 192.550 439.840, 192 439.500 C 191.450 439.160, 191 439.584, 191 440.441 M 225.016 447.604 C 222.807 449.600, 221 450.895, 221 450.482 C 221 450.068, 220.046 450.943, 218.880 452.426 C 217.564 454.098, 216.176 454.898, 215.224 454.533 C 213.116 453.724, 209 457.806, 209 460.706 C 209 462.002, 209.704 463.333, 210.564 463.663 C 212.660 464.467, 217 462.403, 217 460.601 C 217 459.808, 219.794 456.671, 223.208 453.630 C 227.776 449.561, 229.745 448.374, 230.664 449.136 C 231.944 450.198, 234 449.533, 234 448.056 C 234 447.602, 232.882 446.498, 231.516 445.603 C 229.110 444.026, 228.908 444.089, 225.016 447.604 M 182.192 450.075 C 182.389 450.666, 182.978 451.150, 183.500 451.150 C 184.022 451.150, 184.611 450.666, 184.808 450.075 C 185.005 449.484, 184.417 449, 183.500 449 C 182.583 449, 181.995 449.484, 182.192 450.075 M 167 452.441 C 167 453.298, 167.450 454, 168 454 C 168.550 454, 169 453.577, 169 453.059 C 169 452.541, 168.550 451.840, 168 451.500 C 167.450 451.160, 167 451.584, 167 452.441 M 202.985 468.046 C 201.618 469.096, 200.121 469.966, 199.658 469.978 C 199.194 469.990, 197.649 470.917, 196.224 472.039 L 193.632 474.077 192.566 471.491 C 191.599 469.144, 191.321 469.036, 189.563 470.326 C 187.670 471.714, 187.677 471.763, 189.868 472.458 C 192.755 473.374, 192.190 474.930, 187.923 477.810 C 183.729 480.640, 182.808 482.513, 186.128 481.459 C 187.428 481.047, 188.944 480.158, 189.496 479.485 C 190.048 478.813, 193.200 476.416, 196.500 474.160 C 204.411 468.750, 206.445 467.112, 205.912 466.579 C 205.669 466.336, 204.352 466.996, 202.985 468.046 M 268.571 467.571 C 266.288 469.855, 266.581 474.593, 269.115 476.368 C 271.865 478.294, 275.089 477.137, 276.830 473.597 C 277.970 471.280, 277.931 470.543, 276.557 468.447 C 274.708 465.624, 270.932 465.211, 268.571 467.571 M 180 467.941 C 180 468.459, 180.450 469.160, 181 469.500 C 181.550 469.840, 182 469.416, 182 468.559 C 182 467.702, 181.550 467, 181 467 C 180.450 467, 180 467.423, 180 467.941 M 194.079 478.200 C 194.036 479.135, 193.213 480.359, 192.250 480.920 C 191.287 481.481, 191.007 481.953, 191.628 481.970 C 193.278 482.014, 195.272 479.274, 194.673 477.784 C 194.341 476.957, 194.130 477.105, 194.079 478.200 M 190 483.500 C 190 483.775, 190.225 484, 190.500 484 C 190.775 484, 191 483.775, 191 483.500 C 191 483.225, 190.775 483, 190.500 483 C 190.225 483, 190 483.225, 190 483.500 M 233.091 484.115 C 226.016 486.871, 226.395 497.627, 233.630 499.443 C 237.363 500.380, 241.609 498.359, 243.008 494.980 C 244.288 491.890, 243.586 486.699, 241.686 485.207 C 239.693 483.642, 235.630 483.125, 233.091 484.115 M 199.667 484.667 C 199.300 485.033, 199 486.158, 199 487.167 C 199 489.476, 202.807 489.666, 203.677 487.399 C 204.497 485.263, 201.269 483.064, 199.667 484.667 M 170 487.500 C 170 488.325, 170.395 489, 170.878 489 C 171.360 489, 172.315 488.325, 173 487.500 C 174.040 486.247, 173.896 486, 172.122 486 C 170.902 486, 170 486.638, 170 487.500 M 189 486.500 C 189 486.775, 189.225 487, 189.500 487 C 189.775 487, 190 486.775, 190 486.500 C 190 486.225, 189.775 486, 189.500 486 C 189.225 486, 189 486.225, 189 486.500 M 215.500 487 C 215.160 487.550, 215.610 488, 216.500 488 C 217.390 488, 217.840 487.550, 217.500 487 C 217.160 486.450, 216.710 486, 216.500 486 C 216.290 486, 215.840 486.450, 215.500 487 M 197 487.500 C 197 487.775, 197.225 488, 197.500 488 C 197.775 488, 198 487.775, 198 487.500 C 198 487.225, 197.775 487, 197.500 487 C 197.225 487, 197 487.225, 197 487.500 M 195.333 496.667 C 195.700 497.033, 196.300 497.033, 196.667 496.667 C 197.033 496.300, 196.733 496, 196 496 C 195.267 496, 194.967 496.300, 195.333 496.667 M 199.158 498 C 199.158 499.375, 199.385 499.938, 199.662 499.250 C 199.940 498.563, 199.940 497.438, 199.662 496.750 C 199.385 496.063, 199.158 496.625, 199.158 498 M 203 497.500 C 203 497.775, 203.225 498, 203.500 498 C 203.775 498, 204 497.775, 204 497.500 C 204 497.225, 203.775 497, 203.500 497 C 203.225 497, 203 497.225, 203 497.500 M 201 498.500 C 201 498.775, 201.225 499, 201.500 499 C 201.775 499, 202 498.775, 202 498.500 C 202 498.225, 201.775 498, 201.500 498 C 201.225 498, 201 498.225, 201 498.500 M 204.694 500.639 C 203.651 501.682, 204.972 503, 207.059 503 C 209.395 503, 209.627 501.455, 207.418 500.607 C 205.466 499.858, 205.476 499.858, 204.694 500.639 M 224.374 508.469 C 224.071 509.258, 224.102 510.356, 224.443 510.908 C 225.261 512.231, 228 511.146, 228 509.500 C 228 507.621, 225.024 506.775, 224.374 508.469 M 217.213 513.188 C 215.021 515.379, 215.759 518, 218.566 518 C 220.760 518, 221.087 517.612, 220.816 515.327 C 220.456 512.282, 218.989 511.411, 217.213 513.188 M 331.580 515.912 C 327.245 520.701, 332.434 527.378, 338.181 524.407 C 341.204 522.843, 341.898 519.547, 339.965 515.934 C 338.613 513.409, 333.856 513.396, 331.580 515.912 M 239 516 C 239 516.550, 239.450 517, 240 517 C 240.550 517, 241 516.550, 241 516 C 241 515.450, 240.550 515, 240 515 C 239.450 515, 239 515.450, 239 516 M 206.385 523.765 C 204.810 524.803, 203.757 528.660, 204.452 530.848 C 204.902 532.265, 205.910 532.650, 208.769 532.495 C 210.969 532.377, 212.397 531.823, 212.250 531.147 C 212.113 530.516, 212.563 530.112, 213.250 530.250 C 214.914 530.583, 214.266 526.999, 212.255 524.750 C 210.615 522.916, 208.271 522.523, 206.385 523.765 M 315.500 530.731 C 311.358 531.702, 309 535.064, 309 540 C 309 543.554, 309.531 545.132, 311.250 546.688 C 314.387 549.526, 317.757 550.128, 321.577 548.532 C 332.055 544.154, 326.585 528.131, 315.500 530.731 M 267.639 532.694 C 266.444 533.889, 266.994 536, 268.500 536 C 269.325 536, 270 535.352, 270 534.559 C 270 532.888, 268.573 531.761, 267.639 532.694 M 250.500 535 C 250.160 535.550, 250.359 536, 250.941 536 C 251.523 536, 252 535.550, 252 535 C 252 534.450, 251.802 534, 251.559 534 C 251.316 534, 250.840 534.450, 250.500 535 M 231.639 535.694 C 230.686 536.647, 230.867 539, 231.893 539 C 233.120 539, 234.105 536.183, 233.096 535.559 C 232.647 535.282, 231.991 535.342, 231.639 535.694 M 219 540 C 219 540.550, 219.450 541, 220 541 C 220.550 541, 221 540.550, 221 540 C 221 539.450, 220.550 539, 220 539 C 219.450 539, 219 539.450, 219 540 M 227 543.500 C 227 545.056, 227.567 546, 228.500 546 C 230.316 546, 230.491 544.365, 228.750 543.662 C 228.025 543.370, 228.260 543.125, 229.309 543.079 C 231.415 542.987, 230.585 541, 228.441 541 C 227.571 541, 227 541.990, 227 543.500 M 215.659 543.742 C 215.369 544.212, 215.507 545.202, 215.965 545.943 C 216.979 547.584, 220.341 546.524, 219.750 544.749 C 219.250 543.247, 216.399 542.545, 215.659 543.742 M 237.522 547.360 C 236.337 548.227, 235.632 550.036, 235.581 552.345 C 235.487 556.534, 235.469 556.533, 225.112 551.874 C 217.220 548.323, 214.542 548.243, 212.413 551.492 C 210.410 554.550, 211.097 556.631, 214.643 558.247 C 216.782 559.222, 217.427 559.220, 217.754 558.238 C 217.981 557.557, 218.735 557, 219.430 557 C 221.422 557, 227 560.043, 227 561.129 C 227 562.673, 234.949 565.731, 241 566.515 C 244.025 566.907, 249.134 568.526, 252.353 570.114 C 255.572 571.701, 258.367 573, 258.564 573 C 258.761 573, 259.840 572.015, 260.961 570.811 C 265.328 566.124, 262.561 562.638, 254.276 562.388 C 247.431 562.182, 244.982 560.271, 246.920 556.649 C 250.255 550.417, 243.063 543.309, 237.522 547.360 M 283.639 549.694 C 282.513 550.820, 282.954 552, 284.500 552 C 285.325 552, 286 551.577, 286 551.059 C 286 549.798, 284.438 548.895, 283.639 549.694 M 258.281 553.250 C 257.751 553.938, 257.601 555.625, 257.948 557 C 258.430 558.909, 259.329 559.573, 261.755 559.811 C 264.452 560.075, 265.029 559.733, 265.577 557.548 C 265.955 556.044, 265.710 554.356, 264.989 553.487 C 263.486 551.676, 259.600 551.539, 258.281 553.250 M 218.247 559.977 C 216.457 562.842, 216.639 565.353, 218.582 564.607 C 219.452 564.273, 220.378 564, 220.641 564 C 220.903 564, 220.840 563.550, 220.500 563 C 219.635 561.600, 221.349 561.749, 222.800 563.200 C 223.681 564.081, 224.296 564.104, 225.113 563.287 C 226.677 561.723, 225.321 560, 222.524 560 C 221.228 560, 220.015 559.546, 219.830 558.990 C 219.645 558.435, 218.932 558.879, 218.247 559.977 M 210.500 562 C 210.160 562.550, 210.782 563, 211.882 563 C 212.982 563, 214.160 562.550, 214.500 562 C 214.840 561.450, 214.218 561, 213.118 561 C 212.018 561, 210.840 561.450, 210.500 562 M 236.500 564 C 236.840 564.550, 237.343 565, 237.618 565 C 237.893 565, 237.840 564.550, 237.500 564 C 237.160 563.450, 236.657 563, 236.382 563 C 236.107 563, 236.160 563.450, 236.500 564 M 239 563.500 C 239 563.775, 239.225 564, 239.500 564 C 239.775 564, 240 563.775, 240 563.500 C 240 563.225, 239.775 563, 239.500 563 C 239.225 563, 239 563.225, 239 563.500 M 362.243 569.157 C 359.215 572.185, 362.172 578.406, 366.355 577.803 C 369.004 577.422, 370.892 572.644, 369.361 570.197 C 368.044 568.093, 363.911 567.489, 362.243 569.157 M 202.250 572.706 C 198.519 573.424, 199.721 575, 204 575 C 206.889 575, 208 574.583, 208 573.500 C 208 572.025, 206.709 571.847, 202.250 572.706 M 252.333 573.667 C 252.700 574.033, 253.300 574.033, 253.667 573.667 C 254.033 573.300, 253.733 573, 253 573 C 252.267 573, 251.967 573.300, 252.333 573.667 M 261.550 573.889 C 262.072 574.379, 265.333 575.796, 268.795 577.040 C 274.414 579.058, 277.831 581.836, 276.425 583.242 C 275.463 584.204, 279.586 584.697, 281.787 583.883 C 283.204 583.359, 284 582.226, 284 580.732 C 284 576.400, 279.866 574.434, 277.515 577.648 C 276.423 579.143, 276.039 579.154, 273.405 577.775 C 266.019 573.908, 259.173 571.664, 261.550 573.889 M 254 579 C 254 579.550, 254.450 580, 255 580 C 255.550 580, 256 579.550, 256 579 C 256 578.450, 255.550 578, 255 578 C 254.450 578, 254 578.450, 254 579 M 306.695 579.700 C 304.542 580.258, 304.972 582.366, 307.333 582.823 C 308.457 583.041, 309 582.471, 309 581.073 C 309 579.933, 308.887 579.052, 308.750 579.116 C 308.613 579.180, 307.688 579.443, 306.695 579.700 M 216.333 580.667 C 216.700 581.033, 217.300 581.033, 217.667 580.667 C 218.033 580.300, 217.733 580, 217 580 C 216.267 580, 215.967 580.300, 216.333 580.667 M 266.500 583 C 266.840 583.550, 267.316 584, 267.559 584 C 267.802 584, 268 583.550, 268 583 C 268 582.450, 267.523 582, 266.941 582 C 266.359 582, 266.160 582.450, 266.500 583 M 151 585.062 C 151 585.578, 151.900 586, 153 586 C 154.100 586, 155 585.646, 155 585.213 C 155 584.780, 154.100 584.358, 153 584.275 C 151.900 584.192, 151 584.546, 151 585.062 M 220.667 585.667 C 219.449 586.885, 219.978 589, 221.500 589 C 222.333 589, 223 588.111, 223 587 C 223 585.008, 221.934 584.399, 220.667 585.667 M 299.150 587.950 C 299.370 588.610, 299.876 589.116, 300.275 589.075 C 301.471 588.951, 301.239 587.580, 299.950 587.150 C 299.290 586.930, 298.930 587.290, 299.150 587.950 M 154.333 589.667 C 154.700 590.033, 155.300 590.033, 155.667 589.667 C 156.033 589.300, 155.733 589, 155 589 C 154.267 589, 153.967 589.300, 154.333 589.667 M 306.754 589.749 C 305.362 590.065, 305.217 590.537, 306.039 592.073 C 307.091 594.038, 310.449 594.701, 311.417 593.134 C 312.226 591.825, 308.744 589.297, 306.754 589.749 M 142 590.500 C 142 590.775, 142.225 591, 142.500 591 C 142.775 591, 143 590.775, 143 590.500 C 143 590.225, 142.775 590, 142.500 590 C 142.225 590, 142 590.225, 142 590.500 M 166.500 594 C 166.840 594.550, 166.641 595, 166.059 595 C 165.477 595, 165 595.450, 165 596 C 165 597.521, 167.712 597.193, 168.324 595.598 C 168.897 594.104, 168.239 593, 166.774 593 C 166.284 593, 166.160 593.450, 166.500 594 M 232 594.059 C 232 594.641, 232.450 594.840, 233 594.500 C 233.550 594.160, 234 593.684, 234 593.441 C 234 593.198, 233.550 593, 233 593 C 232.450 593, 232 593.477, 232 594.059 M 157 594.500 C 157 594.775, 157.225 595, 157.500 595 C 157.775 595, 158 594.775, 158 594.500 C 158 594.225, 157.775 594, 157.500 594 C 157.225 594, 157 594.225, 157 594.500 M 151.557 596.418 C 152.624 597.198, 153.710 597.624, 153.969 597.364 C 154.520 596.814, 151.941 595.038, 150.559 595.015 C 150.041 595.007, 150.491 595.638, 151.557 596.418 M 178 596 C 178 596.550, 178.450 597, 179 597 C 179.550 597, 180 596.550, 180 596 C 180 595.450, 179.550 595, 179 595 C 178.450 595, 178 595.450, 178 596 M 189.500 596 C 189.840 596.550, 190.316 597, 190.559 597 C 190.802 597, 191 596.550, 191 596 C 191 595.450, 190.523 595, 189.941 595 C 189.359 595, 189.160 595.450, 189.500 596 M 271 596 C 271 596.550, 271.450 597, 272 597 C 272.550 597, 273 596.550, 273 596 C 273 595.450, 272.550 595, 272 595 C 271.450 595, 271 595.450, 271 596 M 167 599 C 167 599.733, 167.300 600.033, 167.667 599.667 C 168.033 599.300, 168.033 598.700, 167.667 598.333 C 167.300 597.967, 167 598.267, 167 599 M 192.333 599.667 C 192.700 600.033, 193.300 600.033, 193.667 599.667 C 194.033 599.300, 193.733 599, 193 599 C 192.267 599, 191.967 599.300, 192.333 599.667 M 230.627 601.529 C 229.318 604.940, 229.914 606.143, 232.750 605.816 C 234.932 605.565, 235.500 604.984, 235.500 603 C 235.500 600.025, 231.650 598.863, 230.627 601.529 M 247 601 C 247 601.733, 247.300 602.033, 247.667 601.667 C 248.033 601.300, 248.033 600.700, 247.667 600.333 C 247.300 599.967, 247 600.267, 247 601 M 154 601.500 C 154 601.775, 154.225 602, 154.500 602 C 154.775 602, 155 601.775, 155 601.500 C 155 601.225, 154.775 601, 154.500 601 C 154.225 601, 154 601.225, 154 601.500 M 322.500 601.954 C 315.589 604.813, 312.159 614.659, 315.385 622.380 C 319.441 632.086, 336.550 632.572, 341.439 623.119 C 345.430 615.401, 342.984 606.240, 336 602.752 C 332.338 600.922, 325.912 600.543, 322.500 601.954 M 232 604.500 C 232 604.775, 232.225 605, 232.500 605 C 232.775 605, 233 604.775, 233 604.500 C 233 604.225, 232.775 604, 232.500 604 C 232.225 604, 232 604.225, 232 604.500 M 162 605.500 C 162 605.775, 162.225 606, 162.500 606 C 162.775 606, 163 605.775, 163 605.500 C 163 605.225, 162.775 605, 162.500 605 C 162.225 605, 162 605.225, 162 605.500 M 187.500 607 C 187.160 607.550, 187.610 608, 188.500 608 C 189.390 608, 189.840 607.550, 189.500 607 C 189.160 606.450, 188.710 606, 188.500 606 C 188.290 606, 187.840 606.450, 187.500 607 M 145.333 608.667 C 145.700 609.033, 146.300 609.033, 146.667 608.667 C 147.033 608.300, 146.733 608, 146 608 C 145.267 608, 144.967 608.300, 145.333 608.667 M 241 609 C 241 609.733, 241.300 610.033, 241.667 609.667 C 242.033 609.300, 242.033 608.700, 241.667 608.333 C 241.300 607.967, 241 608.267, 241 609 M 205 610.059 C 205 610.641, 205.450 610.840, 206 610.500 C 206.550 610.160, 207 609.684, 207 609.441 C 207 609.198, 206.550 609, 206 609 C 205.450 609, 205 609.477, 205 610.059 M 151 612.885 C 151 614.323, 151.461 614.760, 152.542 614.345 C 154.249 613.690, 154.039 611.846, 152.188 611.229 C 151.528 611.009, 151 611.746, 151 612.885 M 175 612 C 175 612.733, 175.300 613.033, 175.667 612.667 C 176.033 612.300, 176.033 611.700, 175.667 611.333 C 175.300 610.967, 175 611.267, 175 612 M 215.688 611.646 C 214.272 613.061, 215.073 615, 217.073 615 C 218.471 615, 219.041 614.457, 218.823 613.333 C 218.466 611.492, 216.759 610.574, 215.688 611.646 M 155 613 C 155 613.733, 155.300 614.033, 155.667 613.667 C 156.033 613.300, 156.033 612.700, 155.667 612.333 C 155.300 611.967, 155 612.267, 155 613 M 119 615.441 C 119 616.298, 119.450 617, 120 617 C 120.550 617, 121 616.577, 121 616.059 C 121 615.541, 120.550 614.840, 120 614.500 C 119.450 614.160, 119 614.584, 119 615.441 M 122.526 615.959 C 122.167 616.539, 122.596 617.292, 123.480 617.631 C 125.680 618.475, 126.364 617.547, 124.613 616.094 C 123.628 615.276, 122.974 615.234, 122.526 615.959 M 144 616.500 C 144 616.775, 144.225 617, 144.500 617 C 144.775 617, 145 616.775, 145 616.500 C 145 616.225, 144.775 616, 144.500 616 C 144.225 616, 144 616.225, 144 616.500 M 146 616.500 C 146 616.775, 146.225 617, 146.500 617 C 146.775 617, 147 616.775, 147 616.500 C 147 616.225, 146.775 616, 146.500 616 C 146.225 616, 146 616.225, 146 616.500 M 148 617.500 C 148 617.775, 148.225 618, 148.500 618 C 148.775 618, 149 617.775, 149 617.500 C 149 617.225, 148.775 617, 148.500 617 C 148.225 617, 148 617.225, 148 617.500 M 174.426 618.881 C 174.726 619.365, 175.990 619.982, 177.235 620.252 C 178.481 620.522, 180.400 621.074, 181.500 621.478 C 182.600 621.882, 182.027 621.265, 180.226 620.106 C 176.931 617.987, 173.414 617.243, 174.426 618.881 M 123 619.500 C 123 619.775, 123.225 620, 123.500 620 C 123.775 620, 124 619.775, 124 619.500 C 124 619.225, 123.775 619, 123.500 619 C 123.225 619, 123 619.225, 123 619.500 M 277.658 619.675 C 276.173 621.160, 277.054 624, 279 624 C 280.100 624, 281 623.380, 281 622.622 C 281 620.926, 278.559 618.774, 277.658 619.675 M 149 622.059 C 149 622.641, 149.450 622.840, 150 622.500 C 150.550 622.160, 151 621.684, 151 621.441 C 151 621.198, 150.550 621, 150 621 C 149.450 621, 149 621.477, 149 622.059 M 141 622.500 C 141 622.775, 141.225 623, 141.500 623 C 141.775 623, 142 622.775, 142 622.500 C 142 622.225, 141.775 622, 141.500 622 C 141.225 622, 141 622.225, 141 622.500 M 124.500 624 C 124.840 624.550, 125.568 625, 126.118 625 C 126.668 625, 126.840 624.550, 126.500 624 C 126.160 623.450, 125.432 623, 124.882 623 C 124.332 623, 124.160 623.450, 124.500 624 M 134 623.882 C 134 624.432, 134.450 625.160, 135 625.500 C 135.550 625.840, 136 625.668, 136 625.118 C 136 624.568, 135.550 623.840, 135 623.500 C 134.450 623.160, 134 623.332, 134 623.882 M 185.638 624.500 C 185.955 625.325, 186.616 626, 187.107 626 C 187.598 626, 188 625.325, 188 624.500 C 188 623.675, 187.339 623, 186.531 623 C 185.637 623, 185.288 623.586, 185.638 624.500 M 129.500 625 C 129.160 625.550, 129.359 626, 129.941 626 C 130.523 626, 131 625.550, 131 625 C 131 624.450, 130.802 624, 130.559 624 C 130.316 624, 129.840 624.450, 129.500 625 M 164.056 625.433 C 162.748 627.008, 163.694 630, 165.500 630 C 166.692 630, 168 627.921, 168 626.025 C 168 624.531, 165.159 624.104, 164.056 625.433 M 176.543 624.931 C 176.226 625.443, 176.425 626.144, 176.984 626.490 C 177.543 626.835, 178 626.416, 178 625.559 C 178 623.802, 177.400 623.544, 176.543 624.931 M 152 626 C 152 626.733, 152.300 627.033, 152.667 626.667 C 153.033 626.300, 153.033 625.700, 152.667 625.333 C 152.300 624.967, 152 625.267, 152 626 M 189 625.843 C 189 626.719, 193.646 630.488, 202.481 636.780 C 205.720 639.086, 208.411 638.978, 209.360 636.504 C 210.198 634.321, 206.834 631.451, 201.820 630.069 C 199.246 629.360, 196.321 628.042, 195.320 627.140 C 193.238 625.264, 189 624.395, 189 625.843 M 119 627.500 C 119 628.325, 119.177 629, 119.393 629 C 119.609 629, 120.045 628.325, 120.362 627.500 C 120.678 626.675, 120.501 626, 119.969 626 C 119.436 626, 119 626.675, 119 627.500 M 184 626.500 C 184 626.775, 184.225 627, 184.500 627 C 184.775 627, 185 626.775, 185 626.500 C 185 626.225, 184.775 626, 184.500 626 C 184.225 626, 184 626.225, 184 626.500 M 116 628 C 116 628.733, 116.300 629.033, 116.667 628.667 C 117.033 628.300, 117.033 627.700, 116.667 627.333 C 116.300 626.967, 116 627.267, 116 628 M 223.173 628.659 C 223.594 630.848, 226.500 631.157, 226.500 629.014 C 226.500 628.196, 225.672 627.368, 224.659 627.173 C 223.323 626.916, 222.916 627.323, 223.173 628.659 M 134 628.878 C 134 629.360, 134.635 630.282, 135.411 630.926 C 136.480 631.813, 136.996 631.816, 137.539 630.937 C 137.934 630.299, 137.636 629.384, 136.878 628.904 C 135.104 627.780, 134 627.770, 134 628.878 M 141.543 628.931 C 141.226 629.443, 141.425 630.144, 141.984 630.490 C 142.543 630.835, 143 630.416, 143 629.559 C 143 627.802, 142.400 627.544, 141.543 628.931 M 127.500 630 C 127.840 630.550, 128.793 631, 129.618 631 C 130.443 631, 130.840 630.550, 130.500 630 C 130.160 629.450, 129.207 629, 128.382 629 C 127.557 629, 127.160 629.450, 127.500 630 M 103 633.559 C 103 634.416, 103.450 634.840, 104 634.500 C 104.550 634.160, 105 633.459, 105 632.941 C 105 632.423, 104.550 632, 104 632 C 103.450 632, 103 632.702, 103 633.559 M 145 632.500 C 145 632.775, 145.225 633, 145.500 633 C 145.775 633, 146 632.775, 146 632.500 C 146 632.225, 145.775 632, 145.500 632 C 145.225 632, 145 632.225, 145 632.500 M 123 634 C 123 634.733, 123.300 635.033, 123.667 634.667 C 124.033 634.300, 124.033 633.700, 123.667 633.333 C 123.300 632.967, 123 633.267, 123 634 M 97 635 C 97 635.733, 97.300 636.033, 97.667 635.667 C 98.033 635.300, 98.033 634.700, 97.667 634.333 C 97.300 633.967, 97 634.267, 97 635 M 141.500 636 C 141.840 636.550, 142.316 637, 142.559 637 C 142.802 637, 143 636.550, 143 636 C 143 635.450, 142.523 635, 141.941 635 C 141.359 635, 141.160 635.450, 141.500 636 M 101 637.941 C 101 638.459, 101.445 639.157, 101.989 639.493 C 102.555 639.843, 102.723 639.442, 102.382 638.552 C 101.717 636.820, 101 636.503, 101 637.941 M 122 638 C 122 638.733, 122.300 639.033, 122.667 638.667 C 123.033 638.300, 123.033 637.700, 122.667 637.333 C 122.300 636.967, 122 637.267, 122 638 M 181.583 637.866 C 181.152 638.563, 181.070 639.403, 181.400 639.733 C 182.295 640.628, 183.271 639.312, 182.787 637.862 C 182.449 636.846, 182.213 636.846, 181.583 637.866" stroke="none" fill="#6d13aa" fill-rule="evenodd"/>
</svg>