<?xml version="1.0" encoding="UTF-8" standalone="no"?>
<svg
   width="620"
   height="400"
   viewBox="0 0 620 400"
   version="1.1"
   id="svg1"
   sodipodi:docname="logo.svg"
   inkscape:version="1.4 (86a8ad7, 2024-10-11)"
   xmlns:inkscape="http://www.inkscape.org/namespaces/inkscape"
   xmlns:sodipodi="http://sodipodi.sourceforge.net/DTD/sodipodi-0.dtd"
   xmlns="http://www.w3.org/2000/svg"
   xmlns:svg="http://www.w3.org/2000/svg">
  <defs
     id="defs1" />
  <sodipodi:namedview
     id="namedview1"
     pagecolor="#ffffff"
     bordercolor="#000000"
     borderopacity="0.25"
     inkscape:showpageshadow="2"
     inkscape:pageopacity="0.0"
     inkscape:pagecheckerboard="0"
     inkscape:deskcolor="#d1d1d1"
     inkscape:zoom="1.9575"
     inkscape:cx="310.0894"
     inkscape:cy="200"
     inkscape:window-width="1920"
     inkscape:window-height="1001"
     inkscape:window-x="-9"
     inkscape:window-y="-9"
     inkscape:window-maximized="1"
     inkscape:current-layer="svg1" />
  <path
     d="M 272 52.011 C 255.291 54.320, 249.096 55.677, 239 59.236 C 197.124 73.997, 160.479 109.014, 144.361 149.671 C 140.257 160.021, 140.403 162.285, 145.142 161.814 C 148.724 161.458, 148.244 162.152, 154.997 147.535 C 166.061 123.590, 186.856 98.296, 205.500 86.107 C 217.997 77.937, 238.156 68.523, 252 64.390 C 266.963 59.925, 277.048 58.878, 297.193 59.702 L 311.886 60.302 312.590 57.496 C 313.813 52.625, 312.343 52.187, 289.500 50.625 C 286.750 50.437, 278.875 51.060, 272 52.011 M 322 110 L 322 169 329 169 L 336 169 336 110 L 336 51 329 51 L 322 51 322 110 M 341.152 61.872 C 340.410 62.349, 339.964 63.586, 340.161 64.620 C 340.502 66.412, 343.005 68.040, 364.223 80.271 C 376.048 87.088, 385.250 94.176, 395 103.978 C 405.241 114.274, 413.142 125.643, 423.507 145 C 427.777 152.975, 431.715 160.063, 432.258 160.750 C 432.801 161.438, 434.599 162, 436.254 162 C 439.155 162, 439.245 161.866, 438.753 158.250 C 438.039 152.999, 428.355 133.319, 420.915 122 C 416.519 115.312, 410.352 108.186, 400.085 97.927 C 384.298 82.153, 374.538 74.928, 358 66.771 C 347.904 61.791, 343.339 60.464, 341.152 61.872 M 277.607 76.582 C 277.273 77.452, 277 97.702, 277 121.582 L 277 165 283 165 L 289 165 289 121.582 C 289 97.702, 288.727 77.452, 288.393 76.582 C 287.535 74.347, 278.465 74.347, 277.607 76.582 M 252 122.500 L 252 165 258 165 L 264 165 264 122.500 L 264 80 258 80 L 252 80 252 122.500 M 299.667 86.667 C 299.300 87.033, 299 105.033, 299 126.667 L 299 166 305.500 166 L 312 166 312 126 L 312 86 306.167 86 C 302.958 86, 300.033 86.300, 299.667 86.667 M 347 129 L 347 165 353 165 L 359 165 359 129 L 359 93 353 93 L 347 93 347 129 M 218 134.500 L 218 165 225 165 L 232 165 232 134.500 L 232 104 225 104 L 218 104 218 134.500 M 370 138.500 L 370 167 376.500 167 L 383 167 383 138.500 L 383 110 376.500 110 L 370 110 370 138.500 M 196 146.750 L 196 165 202 165 L 208 165 208 147 C 208 137.100, 207.662 128.954, 207.250 128.897 C 206.838 128.841, 204.137 128.729, 201.250 128.647 L 196 128.500 196 146.750 M 431.426 180.907 C 431.192 181.142, 431 208.258, 431 241.167 L 431 301 444.151 301 L 457.301 301 456.762 241.445 C 456.466 208.690, 456.060 181.737, 455.862 181.550 C 455.313 181.034, 431.915 180.419, 431.426 180.907 M 26 193.500 L 26 205 43.500 205 L 61 205 61 253 L 61 301 74 301 L 87 301 87 253 L 87 205 102.250 204.900 C 123.495 204.761, 122.435 205.274, 122.795 194.958 C 122.957 190.306, 122.836 185.488, 122.526 184.250 L 121.962 182 73.981 182 L 26 182 26 193.500 M 466.394 183.416 C 466.095 184.195, 465.997 189.257, 466.175 194.666 L 466.500 204.500 484.250 204.773 L 502 205.046 502 253.023 L 502 301 507.250 301.007 C 510.137 301.011, 515.538 301.301, 519.250 301.652 L 526 302.289 526 255.267 C 526 214.069, 526.191 208.086, 527.546 206.962 C 528.563 206.118, 534.220 205.456, 544.071 205.029 C 555.606 204.528, 559.406 204.022, 560.597 202.832 C 561.680 201.748, 562.316 198.397, 562.719 191.643 L 563.294 182 515.116 182 C 474.482 182, 466.852 182.222, 466.394 183.416 M 274.407 212.347 C 268.468 213.858, 263.680 216.627, 259.563 220.930 C 257.948 222.618, 256.284 224, 255.865 224 C 255.447 224, 254.969 221.637, 254.802 218.750 L 254.500 213.500 242.750 213.218 L 231 212.937 231 256.968 L 231 301 244 301 L 257 301 257.024 275.250 C 257.037 261.087, 257.463 247.700, 257.971 245.500 C 259.134 240.463, 264.335 235.532, 270.170 233.936 C 276.131 232.305, 284.492 234.384, 287.318 238.201 C 289.933 241.733, 290.837 252.132, 290.929 279.750 L 291 301 303.584 301 L 316.168 301 315.759 268.750 C 315.284 231.271, 314.846 228.793, 307.380 221.328 C 298.885 212.832, 286.141 209.362, 274.407 212.347 M 359.005 213.668 C 353.017 215.763, 347.575 219.624, 341.435 226.131 C 332.343 235.768, 329 244.068, 329 257 C 329 269.518, 332.821 279.687, 340.683 288.092 C 350.861 298.973, 360.422 302.409, 378.969 301.850 C 389.802 301.524, 391.055 301.272, 397.096 298.205 C 400.666 296.393, 405.592 293.167, 408.043 291.036 C 413.358 286.415, 413.159 285.724, 404.594 279.043 C 399.753 275.267, 398.622 274.774, 397.190 275.819 C 389.489 281.435, 377.211 284.227, 369.447 282.126 C 362.881 280.349, 352.112 269.558, 354.508 267.157 C 354.869 266.796, 369.584 266.369, 387.208 266.210 L 419.251 265.919 418.578 257.710 C 417.393 243.266, 413.949 234.155, 406.702 226.292 C 397.329 216.124, 387.443 211.972, 372.782 212.048 C 367.031 212.077, 361.790 212.694, 359.005 213.668 M 126.630 215.250 C 125.634 218.969, 125.926 257.702, 127.039 269.443 C 128.214 281.828, 130.019 286.801, 135.569 292.945 C 140.390 298.281, 145.069 300.653, 153.395 301.983 C 165.294 303.884, 175.042 301.236, 183.475 293.813 L 188 289.830 188 294.790 C 188 299.545, 188.129 299.776, 191.125 300.375 C 192.844 300.719, 198.248 301, 203.136 301 L 212.021 301 211.761 257.250 L 211.500 213.500 199.396 213.220 L 187.292 212.941 186.734 237.220 C 186.098 264.855, 185.248 270.236, 180.687 275.469 C 174.732 282.303, 163.496 282.619, 156.139 276.159 L 151.971 272.500 151.422 245 C 151.120 229.875, 150.668 216.488, 150.418 215.250 C 149.977 213.075, 149.581 213, 138.598 213 C 127.658 213, 127.211 213.084, 126.630 215.250 M 365.500 232.400 C 359.967 234.839, 351.885 245.387, 353.521 248.034 C 354.273 249.251, 390.970 249.305, 392.885 248.092 C 394.961 246.778, 393.514 242.574, 389.429 238.053 C 383.783 231.803, 372.762 229.200, 365.500 232.400 M 165.116 322.907 C 163.071 324.203, 166.836 328.663, 179.907 340.429 C 206.224 364.118, 230.208 376.540, 261.500 382.687 C 275.271 385.392, 305.036 385.120, 318.773 382.163 C 345.224 376.471, 369.546 365.470, 389.323 350.251 C 397.408 344.031, 415 327.071, 415 325.499 C 415 324.808, 413.653 323.685, 412.006 323.002 C 408.376 321.499, 406.501 322.530, 397.500 330.982 C 377.696 349.579, 358.152 361.403, 335 368.796 C 321.126 373.227, 310.274 375.073, 294.500 375.685 C 252.441 377.317, 215.044 362.212, 179.994 329.434 C 172.001 321.959, 168.818 320.563, 165.116 322.907"
     stroke="none"
     fill="#640080"
     fill-rule="evenodd"
     id="path1" />
  <rect
     style="fill:#ff00ff;fill-rule:evenodd"
     id="rect1"
     width="13.793103"
     height="61.302681"
     x="218.13538"
     y="104.21456" />
  <rect
     style="fill:#800080;fill-rule:evenodd"
     id="rect2"
     width="14.814815"
     height="92.975731"
     x="275.86206"
     y="73.052361" />
  <rect
     style="fill:#000080;fill-rule:evenodd"
     id="rect3"
     width="13.793103"
     height="80.715195"
     x="298.85059"
     y="85.312897" />
  <rect
     style="fill:#ff00ff;fill-rule:evenodd"
     id="rect4"
     width="14.814815"
     height="120.05109"
     x="321.32822"
     y="49.553001" />
  <rect
     style="fill:#000080;fill-rule:evenodd"
     id="rect5"
     width="11.749681"
     height="59.259258"
     x="370.37036"
     y="108.81226" />
</svg>
