<?xml version="1.0" encoding="UTF-8" standalone="no"?>
<svg
   width="300"
   height="300"
   viewBox="0 0 512 512"
   version="1.1"
   id="svg1"
   sodipodi:docname="logo_text.svg"
   inkscape:version="1.4 (86a8ad7, 2024-10-11)"
   xmlns:inkscape="http://www.inkscape.org/namespaces/inkscape"
   xmlns:sodipodi="http://sodipodi.sourceforge.net/DTD/sodipodi-0.dtd"
   xmlns="http://www.w3.org/2000/svg"
   xmlns:svg="http://www.w3.org/2000/svg">
  <defs
     id="defs1" />
  <sodipodi:namedview
     id="namedview1"
     pagecolor="#ffffff"
     bordercolor="#000000"
     borderopacity="0.25"
     inkscape:showpageshadow="2"
     inkscape:pageopacity="0.0"
     inkscape:pagecheckerboard="0"
     inkscape:deskcolor="#d1d1d1"
     showgrid="false"
     inkscape:zoom="1.5292969"
     inkscape:cx="255.67305"
     inkscape:cy="256"
     inkscape:window-width="1920"
     inkscape:window-height="1001"
     inkscape:window-x="-9"
     inkscape:window-y="-9"
     inkscape:window-maximized="1"
     inkscape:current-layer="svg1" />
  <path
     d="m 249,133.281 c -0.275,0.263 -3.702,0.771 -7.615,1.13 -14.84,1.361 -29.912,7.284 -44.385,17.441 -16.523,11.597 -29.296,27.548 -36.523,45.613 -3.153,7.883 -3.113,8.535 0.523,8.535 1.914,0 3,-0.51 3,-1.409 0,-0.776 2.23,-5.864 4.955,-11.308 5.177,-10.341 13.684,-21.939 21.154,-28.838 10.392,-9.598 27.699,-19.006 41.046,-22.313 4.21,-1.043 8.182,-2.222 8.827,-2.621 1.307,-0.808 26.335,-0.71 28.476,0.111 1.764,0.677 3.121,-3.443 1.626,-4.938 -1.087,-1.087 -20.091,-2.352 -21.084,-1.403 m 27.972,3.469 c -0.696,18.788 -0.985,56.907 -0.479,63 l 0.687,8.25 h 3.957 3.958 l -0.148,-33.566 c -0.082,-18.461 0.095,-33.81 0.393,-34.108 0.298,-0.298 0.011,-1.393 -0.639,-2.434 -1.156,-1.85 -7.667,-2.813 -7.729,-1.142 m 11.695,3.917 c -1.833,1.832 0.189,3.636 9.583,8.546 21.705,11.345 34.019,24.16 45.772,47.637 4.573,9.136 5.137,9.842 7.49,9.392 3.081,-0.589 2.934,-1.347 -2.52,-12.948 -5.529,-11.762 -11.101,-19.527 -21.429,-29.866 -9.299,-9.308 -15.688,-13.945 -27.53,-19.98 -6.541,-3.333 -9.974,-4.173 -11.366,-2.781 M 247,179 v 29 h 4 4 v -29 -29 h -4 -4 v 29 m -16,1 v 28 h 4 4 v -28 -28 h -4 -4 v 28 m 31,2 v 26 h 4 4 V 182 173.28225 166.0894 156 h -4 -4 v 26 m 31,2.5 V 208 h 4 4 V 184.5 161 h -4 -4 v 23.5 m -84,3.943 V 208 h 3.872 3.872 l 0.597,-14.75 c 0.329,-8.113 0.499,-16.775 0.378,-19.25 l -0.219,-4.5 -4.25,-0.307 -4.25,-0.308 v 19.558 m 99,2.057 V 208 h 4 4 V 190.5 173 h -4 -4 v 17.5 M 194,196 v 12 h 4 4 v -12 -12 h -4 -4 v 12 m 154,61.46 V 297 h 8.512 8.511 L 364.762,257.75 364.5,218.5 356.25,218.21 348,217.919 V 257.46 M 83,226.5 V 234 H 94.5 106 v 31.5 31.5 h 8.5 8.5 V 265.5 234 h 11.481 c 11.381,0 11.486,-0.022 12.102,-2.475 0.468,-1.863 0.138,-9.637 -0.521,-12.275 C 146.028,219.113 131.825,219 114.5,219 H 83 v 7.5 m 288,0 v 7.5 h 11.5 11.5 v 31.424 31.424 l 8.002,0.326 8.003,0.326 0.104,-29.5 c 0.057,-16.225 0.168,-30.4 0.247,-31.5 0.133,-1.853 0.961,-2.021 11.286,-2.282 12.69,-0.321 12.318,-0.021 12.344,-9.968 L 434,219 H 402.5 371 v 7.5 m -127.336,12.723 c -2.11,0.559 -5.347,2.526 -7.192,4.371 l -3.354,3.355 -0.309,-3.725 -0.309,-3.724 -7.75,-0.292 -7.75,-0.292 V 267.958 297 h 8.5 8.5 v -18.066 c 0,-11.77 0.404,-18.827 1.159,-20.25 2.553,-4.813 8.386,-7.153 14.037,-5.631 6.462,1.74 6.804,2.981 6.804,24.67 V 297 h 8.5 8.5 v -19.818 c 0,-22.734 -0.972,-27.863 -6.223,-32.847 -6.472,-6.143 -13.42,-7.68 -23.113,-5.112 m 56.836,0.484 c -6.799,2.318 -15.542,11.011 -17.824,17.721 -2.156,6.34 -2.135,14.919 0.053,21.707 1.992,6.177 7.705,12.502 14.426,15.969 5.931,3.059 18.624,3.794 25.587,1.482 4.914,-1.632 13.624,-8.057 13.053,-9.628 -0.162,-0.445 -2.311,-2.399 -4.775,-4.342 -4.415,-3.482 -4.508,-3.506 -6.5,-1.641 -4.339,4.064 -14.021,5.377 -19.32,2.62 -3.094,-1.61 -6.616,-5.284 -7.52,-7.845 -0.575,-1.632 0.843,-1.75 20.996,-1.75 h 21.614 l -0.584,-6.968 c -1.032,-12.311 -6.311,-20.706 -16.206,-25.769 -6.479,-3.316 -15.959,-3.957 -23,-1.556 m -152.08,2.869 c -1.045,5.567 0.198,37.424 1.616,41.424 3.361,9.484 10.034,14.002 20.674,13.996 7.021,-0.004 10.857,-1.507 16.064,-6.298 l 2.273,-2.091 -0.273,3.446 -0.274,3.447 8.192,0.29 8.191,0.289 -0.191,-28.789 -0.192,-28.79 -8.25,-0.29 -8.25,-0.291 v 17.073 c 0,18.163 -0.687,21.692 -4.967,25.508 -1.592,1.419 -3.657,2 -7.115,2 -3.99,0 -5.375,-0.502 -7.645,-2.77 l -2.773,-2.77 -0.5,-19.23 -0.5,-19.23 -7.697,-0.291 -7.697,-0.291 -0.686,3.658 m 154.77,10.45 c -2.689,1.639 -6.19,6.979 -6.19,9.442 0,0.293 6.075,0.532 13.5,0.532 14.737,0 14.954,-0.104 11.614,-5.58 -3.689,-6.05 -12.756,-8.155 -18.924,-4.394 m -127.94,57.68 c -1.238,0.238 -2.25,0.81 -2.25,1.27 0,0.46 4.162,4.768 9.25,9.574 13.619,12.866 26.71,20.838 42.274,25.745 33.683,10.619 71.05,2.736 99.721,-21.037 4.259,-3.532 9.095,-8.061 10.746,-10.064 l 3.002,-3.642 -2.549,-1.335 c -2.451,-1.285 -2.874,-1.028 -11.045,6.707 -23.214,21.974 -54.508,31.748 -85.399,26.672 -18.456,-3.033 -38.415,-13.189 -52.505,-26.716 -4.514,-4.334 -8.385,-7.819 -8.601,-7.744 -0.217,0.075 -1.406,0.331 -2.644,0.57 m 211.94,62.044 c 0.186,0.962 1,1.75 1.81,1.75 0.81,0 1.624,-0.788 1.81,-1.75 0.236,-1.228 -0.304,-1.75 -1.81,-1.75 -1.506,0 -2.046,0.522 -1.81,1.75 M 221,373.64 c 0,0.902 -0.787,2.252 -1.75,3 -1.667,1.295 -1.667,1.425 0,2.72 1.247,0.969 1.75,2.781 1.75,6.3 0,5.175 1.222,7.34 4.141,7.34 2.818,0 3.362,-2.174 1.018,-4.072 -3.02,-2.446 -3.14,-9.928 -0.159,-9.928 1.1,0 2,-0.492 2,-1.094 0,-0.601 -0.9,-1.329 -2,-1.616 -1.107,-0.29 -2,-1.364 -2,-2.407 0,-1.035 -0.675,-1.883 -1.5,-1.883 -0.825,0 -1.5,0.738 -1.5,1.64 m -123.231,2.925 c -0.334,0.333 0.707,3.693 2.312,7.466 3.608,8.48 3.628,9.748 0.169,11.068 -2.654,1.014 -2.682,1.1 -0.812,2.473 3.02,2.218 5.579,-0.191 9.235,-8.694 4.259,-9.902 4.965,-12.878 3.057,-12.878 -0.905,0 -2.389,2.413 -3.795,6.173 l -2.308,6.173 -1.809,-4.423 c -2.913,-7.123 -4.434,-8.973 -6.049,-7.358 m 18.866,1.508 C 110.938,382.553 114.693,393 122,393 c 8.208,0 11.187,-11.783 3.928,-15.537 -3.851,-1.992 -6.18,-1.839 -9.293,0.61 m 15.976,2.8 c -0.692,5.22 -0.189,7.601 2.196,10.377 1.725,2.009 6.225,2.318 7.993,0.55 0.933,-0.933 1.2,-0.933 1.2,0 0,0.66 0.675,1.2 1.5,1.2 1.217,0 1.5,-1.62 1.5,-8.583 0,-6.42 -0.315,-8.48 -1.25,-8.171 -0.687,0.227 -1.487,2.735 -1.777,5.574 -0.619,6.064 -3.042,9.254 -5.742,7.559 -1.272,-0.799 -1.81,-2.717 -2.029,-7.233 -0.374,-7.735 -2.628,-8.534 -3.591,-1.273 m 27.978,-1.796 c -1.424,1.692 -2.589,4.132 -2.589,5.423 0,1.291 1.165,3.731 2.589,5.423 2.877,3.419 7.468,4.107 10.761,1.612 2.587,-1.96 1.113,-3.796 -2.423,-3.019 -4.449,0.977 -6.929,-0.219 -6.912,-3.333 0.029,-5.049 2.275,-6.335 8.235,-4.714 3.211,0.873 3.803,-0.949 1,-3.077 -3.197,-2.427 -7.815,-1.697 -10.661,1.685 m 14.988,-2.133 c -0.166,0.306 -0.394,3.818 -0.507,7.806 -0.189,6.728 -0.055,7.25 1.863,7.25 1.81,0 2.067,-0.613 2.067,-4.932 0,-4.359 0.355,-5.185 3.058,-7.109 1.681,-1.197 2.789,-2.445 2.461,-2.773 -0.765,-0.766 -8.544,-0.976 -8.942,-0.242 m 13.905,10e-4 c -3.054,1.239 -4.839,5.34 -4.081,9.378 1.14,6.076 7.969,8.63 12.738,4.763 3.045,-2.469 1.798,-3.717 -2.101,-2.102 -2.615,1.084 -3.4,1.002 -5.782,-0.603 l -2.756,-1.857 2.398,-0.351 c 1.319,-0.193 4.356,-0.195 6.75,-0.005 4.297,0.342 4.352,0.306 4.352,-2.838 0,-5.406 -5.887,-8.669 -11.518,-6.385 m 15.656,0.671 c -3.097,2.169 -1.37,3.902 2.247,2.255 2.27,-1.035 2.95,-0.964 4.366,0.452 1.57,1.569 1.475,1.677 -1.481,1.677 -1.837,0 -4.257,0.945 -5.782,2.257 -2.284,1.964 -2.49,2.608 -1.591,4.972 1.103,2.901 3.203,3.685 9.349,3.49 2.707,-0.086 3.91,-0.635 4.336,-1.977 0.899,-2.833 -0.589,-11.606 -2.251,-13.268 -1.942,-1.942 -6.314,-1.875 -9.193,0.142 m 26.317,0.839 c -6.927,6.926 2.337,18.582 10.322,12.988 2.776,-1.944 2.918,-3.891 0.223,-3.06 -1.1,0.34 -2.801,0.868 -3.779,1.176 -1.029,0.323 -2.781,-0.31 -4.153,-1.5 L 231.694,386 h 6.653 c 6.462,0 6.653,-0.073 6.653,-2.545 0,-3.56 -4.18,-7.455 -8,-7.455 -1.948,0 -3.998,0.907 -5.545,2.455 m 22.198,-1.703 c -0.255,0.413 0.898,3.995 2.564,7.959 3.177,7.562 3.116,10.128 -0.263,11.011 -2.331,0.61 -2.097,2.621 0.362,3.098 2.668,0.518 6.213,-4.274 9.301,-12.572 3.284,-8.827 3.424,-9.748 1.482,-9.748 -0.792,0 -2.348,2.54 -3.583,5.85 l -2.183,5.85 -2.167,-5.035 c -1.191,-2.77 -2.166,-5.515 -2.166,-6.1 0,-1.21 -2.64,-1.457 -3.347,-0.313 m 18.802,1.703 c -3.394,3.393 -3.341,8.749 0.118,12.209 5.01,5.01 13.427,1.048 13.427,-6.32 0,-4.466 -3.718,-8.344 -8,-8.344 -1.948,0 -3.998,0.907 -5.545,2.455 M 289,382.929 c 0,4.965 0.445,7.373 1.571,8.5 1.775,1.774 6.974,2.116 7.959,0.522 0.439,-0.71 1.128,-0.65 2.135,0.186 1.919,1.593 3.122,-0.116 2.777,-3.941 -0.134,-1.483 -0.288,-4.819 -0.343,-7.415 -0.079,-3.759 -0.404,-4.601 -1.599,-4.143 -1.078,0.414 -1.5,2.1 -1.5,5.99 0,4.866 -0.265,5.535 -2.61,6.604 -2.24,1.021 -2.806,0.92 -4,-0.713 -0.773,-1.058 -1.39,-4.255 -1.39,-7.21 0,-4.052 -0.355,-5.309 -1.5,-5.309 -1.189,0 -1.5,1.437 -1.5,6.929 m 18.419,-5.58 c -0.284,0.742 -0.383,4.455 -0.218,8.25 0.231,5.335 0.639,6.901 1.799,6.901 1.111,0 1.63,-1.556 2,-6 0.44,-5.281 0.77,-6.038 2.75,-6.32 1.446,-0.205 2.25,-1.009 2.25,-2.25 0,-2.234 -0.041,-2.245 -3.435,-0.955 -1.667,0.634 -2.565,0.634 -2.565,0 0,-1.462 -1.986,-1.174 -2.581,0.374 m 19.248,-0.682 c -0.828,0.827 -0.89,14.777 -0.069,15.597 0.329,0.329 1.229,0.356 2,0.06 0.961,-0.369 1.402,-2.222 1.402,-5.896 0,-4.109 0.414,-5.579 1.776,-6.308 3.498,-1.872 5.224,0.417 5.224,6.93 0,4.622 0.335,5.95 1.5,5.95 1.096,0 1.504,-1.145 1.515,-4.25 0.018,-5.323 1.935,-9.25 4.515,-9.25 1.707,0 2.037,0.868 2.47,6.5 0.376,4.889 0.872,6.5 2,6.5 1.729,0 2.524,-5.893 1.519,-11.252 -0.78,-4.154 -4.291,-6.129 -7.94,-4.466 -1.787,0.814 -3.235,0.797 -5.522,-0.066 -2.387,-0.902 -3.543,-0.893 -5.032,0.036 -1.219,0.761 -2.156,0.845 -2.538,0.228 -0.702,-1.137 -1.868,-1.266 -2.82,-0.313 m 28,0 c -1.257,1.256 -0.668,10.431 0.859,13.383 1.218,2.355 2.185,2.95 4.8,2.95 1.801,0 3.814,-0.54 4.474,-1.2 0.933,-0.933 1.2,-0.933 1.2,0 0,0.66 0.693,1.2 1.54,1.2 1.287,0 1.493,-1.361 1.25,-8.25 -0.219,-6.239 -0.629,-8.25 -1.681,-8.25 -0.97,0 -1.462,1.511 -1.628,5 -0.323,6.785 -0.203,6.459 -2.731,7.417 -3.519,1.334 -4.75,-0.49 -4.75,-7.039 0,-4.232 -0.373,-5.878 -1.333,-5.878 -0.734,0 -1.634,0.3 -2,0.667 m 19.293,1.164 c -3.503,2.837 -2.098,6.511 3.081,8.063 2.363,0.708 3.911,1.727 3.671,2.415 -0.462,1.327 -3.014,1.431 -6.554,0.268 -1.935,-0.636 -2.281,-0.453 -1.99,1.056 0.777,4.036 9.725,4.305 11.838,0.355 1.517,-2.834 -0.326,-5.755 -4.278,-6.779 -3.56,-0.922 -5.123,-4.209 -2.001,-4.209 1.03,0 2.413,0.54 3.073,1.2 0.933,0.933 1.478,0.918 2.45,-0.067 1.002,-1.016 0.865,-1.552 -0.691,-2.7 -2.642,-1.95 -5.884,-1.8 -8.599,0.398 m 13.491,-0.565 c -0.302,0.788 -0.415,4.538 -0.25,8.333 0.231,5.335 0.639,6.901 1.799,6.901 1.207,0 1.5,-1.546 1.5,-7.917 0,-5.442 -0.39,-8.046 -1.249,-8.333 -0.688,-0.229 -1.497,0.228 -1.8,1.016 m 9.004,1.189 c -6.843,6.842 2.168,18.942 9.795,13.153 2.569,-1.95 2.248,-3.989 -0.5,-3.174 -4.452,1.319 -5.276,1.294 -7,-0.214 -2.347,-2.052 -2.211,-5.493 0.306,-7.771 1.693,-1.532 2.396,-1.648 3.986,-0.655 2.657,1.659 4.958,1.511 4.958,-0.319 0,-1.616 -3.803,-3.475 -7.111,-3.475 -1.089,0 -3.084,1.105 -4.434,2.455 M 190.2,380.2 c -2.13,2.13 -1.296,2.8 3.489,2.8 h 4.688 l -2.147,-2 c -2.45,-2.283 -4.301,-2.529 -6.03,-0.8 m 44,0 c -2.067,2.067 -1.335,2.8 2.8,2.8 2.2,0 4,-0.36 4,-0.8 0,-1.351 -2.312,-3.2 -4,-3.2 -0.88,0 -2.14,0.54 -2.8,1.2 m -116.22,1.838 c -2.24,4.185 1.966,9.131 5.952,6.998 4.589,-2.455 3.182,-9.036 -1.932,-9.036 -1.924,0 -3.304,0.699 -4.02,2.038 m 156.055,-0.104 c -1.625,3.036 -1.233,4.89 1.398,6.614 4.286,2.809 8.354,-1.187 6.45,-6.335 -1.076,-2.909 -6.34,-3.096 -7.848,-0.279 m -66.785,3.728 c -1.696,0.685 -1.584,3.273 0.172,3.946 1.919,0.737 5.578,-1.326 5.578,-3.143 0,-1.435 -3.108,-1.869 -5.75,-0.803 m 203.086,3.905 c -0.722,1.881 1.048,3.932 2.577,2.987 1.648,-1.019 1.303,-4.554 -0.444,-4.554 -0.843,0 -1.802,0.705 -2.133,1.567"
     stroke="none"
     fill="#600b7f"
     fill-rule="evenodd"
     id="path1"
     sodipodi:nodetypes="ccccsscccccscccccccscccccccccccccccccccccccccccccccccccccccccccccccccccccccccccccccccccccccccccccccccccccccccccccccsccscccccccccccscccccccccccccccccsccscccsscccccccccccsccccccsccccccccccscsccccccccsscccscccsccccccccscsccccsscsscssccccccscccccsccccssssscccccscscccccccsscccccscscccsccccsccccscccccscsssccccccscccscccssccccccccsccsscccsccscscccsscsscscsccccccccsssscsccssccccccccsscccccsscccsccccssccsccccssscccscccscccscccsc" />
  <rect
     style="fill:#ff00ff;fill-opacity:1"
     id="rect1"
     width="9.1545334"
     height="39.887611"
     x="208.59259"
     y="168.05109" />
  <rect
     style="fill:#800080;fill-opacity:1"
     id="rect2"
     width="6.5389528"
     height="58.196678"
     x="247.82631"
     y="149.08812" />
  <rect
     style="fill:#000080;fill-opacity:1"
     id="rect3"
     width="8.500639"
     height="51.657726"
     x="261.55811"
     y="156.93486" />
  <rect
     style="fill:#ff00ff;fill-opacity:1"
     id="rect4"
     width="9.1545334"
     height="77.159645"
     x="276.59769"
     y="133.39464" />
  <rect
     style="fill:#000080;fill-opacity:1"
     id="rect5"
     width="8.500639"
     height="37.27203"
     x="307.98468"
     y="171.97446" />
</svg>
